<?xml version="1.0" encoding="UTF-8" standalone="no"?>
<!DOCTYPE svg PUBLIC "-//W3C//DTD SVG 1.1//EN" "http://www.w3.org/Graphics/SVG/1.1/DTD/svg11.dtd">
<svg width="100%" height="100%" viewBox="0 0 480 456" version="1.1" xmlns="http://www.w3.org/2000/svg" xmlns:xlink="http://www.w3.org/1999/xlink" xml:space="preserve" xmlns:serif="http://www.serif.com/" style="fill-rule:evenodd;clip-rule:evenodd;stroke-linejoin:round;stroke-miterlimit:2;">
    <rect id="avatar" x="0" y="0" width="480" height="455.176" style="fill:none;"/>
    <clipPath id="_clip1">
        <rect x="0" y="0" width="480" height="455.176"/>
    </clipPath>
    <g clip-path="url(#_clip1)">
        <path id="avatar-vertical-lines" d="M479.539,129.22C480.044,129.594 480.151,130.308 479.777,130.813C479.403,131.318 478.689,131.425 478.184,131.051L453.663,112.903C453.158,112.53 453.052,111.816 453.426,111.311C453.799,110.806 454.513,110.699 455.018,111.073L479.539,129.22ZM73.294,143.001C73.799,143.375 73.906,144.088 73.532,144.594C73.158,145.099 72.444,145.205 71.939,144.832L28.798,112.903C28.293,112.53 28.186,111.816 28.56,111.311C28.934,110.806 29.648,110.699 30.153,111.073L73.294,143.001ZM479.539,174.14C480.044,174.513 480.151,175.227 479.777,175.732C479.403,176.238 478.689,176.344 478.184,175.97L392.968,112.903C392.463,112.53 392.357,111.816 392.73,111.311C393.104,110.806 393.818,110.699 394.323,111.073L479.539,174.14ZM71.867,186.865C72.373,187.239 72.479,187.952 72.105,188.457C71.731,188.963 71.018,189.069 70.513,188.695L0.461,136.851C-0.044,136.478 -0.151,135.764 0.223,135.259C0.597,134.753 1.311,134.647 1.816,135.021L71.867,186.865ZM479.539,219.059C480.044,219.433 480.151,220.147 479.777,220.652C479.403,221.157 478.689,221.264 478.184,220.89L411.594,171.607C411.088,171.233 410.982,170.52 411.356,170.014C411.73,169.509 412.443,169.403 412.948,169.777L479.539,219.059ZM67.215,228.341C67.72,228.715 67.827,229.429 67.453,229.934C67.079,230.439 66.365,230.546 65.86,230.172L0.461,181.771C-0.044,181.397 -0.151,180.683 0.223,180.178C0.597,179.673 1.311,179.566 1.816,179.94L67.215,228.341ZM479.539,263.979C480.044,264.352 480.151,265.066 479.777,265.571C479.403,266.077 478.689,266.183 478.184,265.809L401.162,208.806C400.656,208.432 400.55,207.719 400.924,207.213C401.298,206.708 402.011,206.602 402.517,206.976L479.539,263.979ZM58.111,266.522C58.616,266.896 58.722,267.61 58.349,268.115C57.975,268.62 57.261,268.727 56.756,268.353L0.461,226.69C-0.044,226.317 -0.151,225.603 0.223,225.098C0.597,224.592 1.311,224.486 1.816,224.86L58.111,266.522ZM85.945,129.904C86.45,130.278 86.556,130.991 86.183,131.497C85.809,132.002 85.095,132.108 84.59,131.734L59.145,112.903C58.64,112.53 58.534,111.816 58.908,111.311C59.281,110.806 59.995,110.699 60.5,111.073L85.945,129.904ZM479.539,151.68C480.044,152.054 480.151,152.767 479.777,153.273C479.403,153.778 478.689,153.884 478.184,153.51L423.316,112.903C422.811,112.53 422.704,111.816 423.078,111.311C423.452,110.806 424.166,110.699 424.671,111.073L479.539,151.68ZM68.098,161.616C68.604,161.989 68.71,162.703 68.336,163.208C67.962,163.713 67.249,163.82 66.744,163.446L0.461,114.392C-0.044,114.018 -0.151,113.304 0.223,112.799C0.597,112.294 1.311,112.187 1.816,112.561L68.098,161.616ZM479.539,196.599C480.044,196.973 480.151,197.687 479.777,198.192C479.403,198.697 478.689,198.804 478.184,198.43L408.588,146.923C408.083,146.549 407.976,145.836 408.35,145.33C408.724,144.825 409.438,144.719 409.943,145.092L479.539,196.599ZM77.366,213.394C77.871,213.768 77.978,214.482 77.604,214.987C77.23,215.492 76.517,215.599 76.011,215.225L0.461,159.311C-0.044,158.937 -0.151,158.224 0.223,157.718C0.597,157.213 1.311,157.107 1.816,157.48L77.366,213.394ZM479.539,241.519C480.044,241.893 480.151,242.606 479.777,243.112C479.403,243.617 478.689,243.723 478.184,243.349L405.744,189.738C405.239,189.364 405.132,188.65 405.506,188.145C405.88,187.64 406.594,187.533 407.099,187.907L479.539,241.519ZM60.068,245.512C60.574,245.886 60.68,246.599 60.306,247.104C59.932,247.61 59.219,247.716 58.714,247.342L0.461,204.231C-0.044,203.857 -0.151,203.143 0.223,202.638C0.597,202.133 1.311,202.026 1.816,202.4L60.068,245.512ZM452.629,266.522C453.134,266.896 453.24,267.61 452.867,268.115C452.493,268.62 451.779,268.727 451.274,268.353L427.2,250.536C426.695,250.162 426.588,249.449 426.962,248.944C427.336,248.438 428.049,248.332 428.555,248.706L452.629,266.522ZM27.763,266.522C28.268,266.896 28.375,267.61 28.001,268.115C27.627,268.62 26.913,268.727 26.408,268.353L0.461,249.15C-0.044,248.776 -0.151,248.063 0.223,247.557C0.597,247.052 1.311,246.946 1.816,247.319L27.763,266.522Z" style="fill:#ff5c5c;"/>
        <path id="avatar-base-colour" d="M170.706,312.056C169.091,314.112 166.867,315.758 164.305,317.025C159.5,319.403 153.509,320.422 148.379,320.403C145.303,320.393 142.537,320.009 140.521,319.322C140.171,319.203 139.9,318.92 139.796,318.564C139.692,318.209 139.767,317.825 139.998,317.535C147.721,307.842 150.456,297.354 146.198,288.428C146.165,288.549 146.131,288.669 146.096,288.789C145.872,289.564 145.621,290.31 145.355,291.024C142.345,299.109 135.244,303.711 125.532,305.962C125.401,305.992 125.269,305.999 125.14,305.984C124.858,305.95 124.593,305.811 124.403,305.586C124.128,305.258 124.059,304.804 124.226,304.409C129.235,292.563 129.441,283.747 125.359,277.495C125.336,277.6 125.313,277.704 125.289,277.809C123.456,285.968 120.159,291.929 115.425,295.655C111.494,298.748 106.557,300.329 100.574,300.305C98.486,300.297 96.27,300.093 93.926,299.689C93.456,299.608 93.086,299.243 92.999,298.774C92.913,298.305 93.127,297.832 93.537,297.588C93.537,297.588 98.387,294.699 102.123,289.647C105.789,284.689 108.37,277.605 103.983,269.098C98.739,258.928 97.402,249.358 97.786,241.351C97.694,241.403 97.601,241.456 97.51,241.508C89.496,246.069 84.609,251.058 82.856,256.561C80.984,262.438 82.769,268.824 87.927,275.75C88.226,276.152 88.227,276.702 87.93,277.105C87.684,277.44 87.279,277.609 86.878,277.561C86.797,277.551 86.715,277.532 86.635,277.504C76.321,273.873 69.966,268.193 67.315,261.184C63.378,250.775 67.63,237.226 79.856,222.678C85.186,216.335 85.233,210.438 83.867,204.67C82.909,200.624 81.283,196.637 80.19,192.608C75.389,174.915 71.764,161.173 77.796,149.111C81.731,141.241 86.312,137.805 91.275,134.651C98.357,130.15 106.252,126.245 114.055,109.553C118.132,100.832 120.853,89.174 124.147,71.622C126.96,56.635 135.845,43.623 147.687,33.096C165.329,17.415 189.529,7.257 209.704,4.247C215.563,3.373 221.196,2.996 226.544,2.99C254.622,2.957 274.86,13.154 278.958,15.389C278.963,15.392 278.969,15.395 278.974,15.398C278.985,15.396 278.995,15.395 279.006,15.394C279.14,15.378 279.28,15.385 279.419,15.42C279.547,15.453 279.665,15.505 279.769,15.575C279.779,15.581 279.789,15.588 279.799,15.595C282.998,15.317 286.057,15.179 288.983,15.175C302.568,15.156 313.305,18.013 321.954,23.003C334.405,30.187 342.551,41.807 348.588,55.795C354.545,69.599 358.451,85.716 362.509,102.066C365.506,114.144 374.582,121.853 383.57,128.828C392.953,136.108 402.226,142.645 405.205,152.015C409.616,165.888 403.957,177.747 399.446,188.658C395.206,198.913 391.976,208.297 400.775,217.824C418.149,236.636 423.891,249.85 422.592,260.558C421.288,271.314 412.864,279.693 401.469,288.798C401.225,288.993 400.919,289.074 400.623,289.039C400.44,289.017 400.261,288.951 400.102,288.839C399.688,288.548 399.517,288.018 399.681,287.539C406.333,268.149 402.783,253.138 391.701,241.347C391.713,241.455 391.724,241.563 391.734,241.672C392.505,249.584 390.832,259.619 382.861,270.87C378.501,277.023 377.241,282.085 377.687,286.182C378.71,295.591 388.626,299.703 388.626,299.703C389.063,299.886 389.341,300.32 389.324,300.794C389.308,301.267 388.999,301.681 388.55,301.832C385.72,302.787 382.919,303.231 380.213,303.216C374.556,303.184 369.319,301.142 365.12,297.551C365.04,297.56 364.96,297.569 364.88,297.577C364.425,297.622 363.971,297.641 363.52,297.636C357.462,297.571 351.915,293.13 348.948,286.877C348.953,287.073 348.958,287.267 348.965,287.459C349.122,292.01 349.889,295.639 351.622,298.853C353.347,302.053 356.029,304.829 359.967,307.721C360.334,307.991 360.505,308.453 360.402,308.897C360.299,309.34 359.942,309.68 359.494,309.76C359.494,309.76 357.669,310.081 354.928,310.07C349.236,310.048 339.591,308.594 334.129,299.859C332.532,297.305 331.288,294.127 330.616,290.17C330.489,289.421 330.382,288.644 330.298,287.838C330.215,287.916 330.134,287.995 330.054,288.074C326.931,291.14 325.203,294.506 324.759,298.04C323.953,304.437 327.305,311.29 333.786,317.774C334.073,318.061 334.185,318.48 334.081,318.872C333.976,319.265 333.671,319.572 333.279,319.678C331.411,320.186 329.364,320.453 327.234,320.441C319.177,320.397 309.921,316.358 304.556,306.215C304.541,306.353 304.525,306.49 304.508,306.627C303.87,311.729 301.553,316.23 297.797,319.127C298.245,320.438 298.677,321.661 299.078,322.762C299.807,324.761 300.68,326.697 301.497,328.509C309.281,334.268 320.241,338.053 331.988,340.85C350.026,345.144 369.914,347.086 383.288,350.001C406.908,355.148 415.495,367.568 419.868,373.607C427.484,384.125 430.066,392.955 427.806,400.033L427.798,400.058C427.798,400.058 417.738,429.392 382.289,444.062C370.499,448.941 355.873,452.203 337.84,452.186C302.187,452.154 253.215,439.309 186.518,400.822C170.545,391.605 150.246,388.581 130.36,388.594C126.655,388.597 122.964,388.705 119.319,388.898C84.319,390.751 53.425,400.486 53.425,400.486C53.269,400.535 53.107,400.549 52.948,400.53C52.752,400.507 52.563,400.433 52.401,400.311C52.107,400.092 51.937,399.744 51.945,399.377C52.073,392.89 52.04,384.521 59.98,373.605C64.339,367.61 72.939,355.147 96.558,350.001C109.54,347.171 128.659,345.258 146.267,341.222C157.729,338.594 168.55,335.073 176.554,329.765C177.35,327.943 178.294,325.954 179.149,323.872C175.876,323.169 173.901,321.87 172.697,320.218C171.422,318.469 171.001,316.276 170.956,313.792C170.944,313.111 170.96,312.406 170.989,311.682C170.897,311.808 170.802,311.933 170.706,312.056ZM212.459,258.171C212.447,258.448 212.612,258.738 212.852,259.065C213.398,259.811 214.36,260.611 215.642,261.431C221.021,264.872 231.807,268.413 243.336,268.353C254.366,268.296 265.358,264.601 270.908,261.14C272.239,260.31 273.245,259.507 273.819,258.769C274.06,258.461 274.235,258.197 274.225,257.943C274.035,253.207 269.696,243.176 259.694,239.175C257.628,238.349 255.024,238.441 252.288,238.705C249.346,238.988 246.26,239.49 243.463,239.49C240.665,239.49 237.579,238.988 234.637,238.705C231.9,238.441 229.295,238.349 227.229,239.175C217.221,243.178 212.648,253.432 212.459,258.171Z" style="fill:#fff;"/>
        <g id="eyesshock">
            <g id="eise">
                <circle cx="289.65" cy="161.106" r="7.8" style="fill:#ccf3f0;"/>
                <clipPath id="_clip2">
                    <circle cx="289.65" cy="161.106" r="7.8"/>
                </clipPath>
                <g clip-path="url(#_clip2)">
                    <path id="avatar-highlight" d="M301.659,322.6C316.357,323.462 334.475,320.614 347.751,309.899C351.835,306.603 355.115,302.952 357.938,296.845C362.576,286.81 357.831,280.18 347.31,276.012C339.254,272.82 327.309,270.196 316.94,268.281C308.415,266.707 302.51,261.074 299.457,257.386C303.801,260.02 309.366,261.873 315.279,263.281C325.573,265.731 336.922,266.841 344.554,268.504C351.941,270.114 356.65,273.018 359.779,275.832C360.825,276.798 361.703,277.745 362.462,278.613C363.369,279.691 364.067,280.672 364.635,281.457C368.653,287.006 370.167,291.62 368.98,295.356C368.851,295.724 363.155,311.643 343.764,319.667C333.73,323.82 320.066,325.853 301.659,322.6Z" style="fill:#fff;fill-opacity:0.53;"/>
                </g>
                <path d="M289.65,151.806C294.783,151.806 298.95,155.973 298.95,161.106C298.95,166.239 294.783,170.406 289.65,170.406C284.518,170.406 280.35,166.239 280.35,161.106C280.35,155.973 284.518,151.806 289.65,151.806ZM289.65,153.306C285.345,153.306 281.85,156.801 281.85,161.106C281.85,165.411 285.345,168.906 289.65,168.906C293.955,168.906 297.45,165.411 297.45,161.106C297.45,156.801 293.955,153.306 289.65,153.306ZM289.65,158.037C291.344,158.037 292.719,159.412 292.719,161.106C292.719,162.8 291.344,164.175 289.65,164.175C287.957,164.175 286.582,162.8 286.582,161.106C286.582,159.412 287.957,158.037 289.65,158.037Z" style="fill:#ff5c5c;"/>
            </g>
            <g id="eise1" serif:id="eise">
                <circle cx="193.65" cy="160.626" r="7.8" style="fill:#ccf3f0;"/>
                <clipPath id="_clip3">
                    <circle cx="193.65" cy="160.626" r="7.8"/>
                </clipPath>
                <g clip-path="url(#_clip3)">
                    <path id="avatar-highlight1" serif:id="avatar-highlight" d="M205.659,322.12C220.357,322.982 238.475,320.134 251.751,309.419C255.835,306.123 259.115,302.472 261.938,296.365C266.576,286.33 261.831,279.7 251.31,275.532C243.254,272.34 231.309,269.716 220.94,267.801C212.415,266.227 206.51,260.594 203.457,256.906C207.801,259.54 213.366,261.393 219.279,262.801C229.573,265.251 240.922,266.361 248.554,268.024C255.941,269.634 260.65,272.538 263.779,275.352C264.825,276.318 265.703,277.265 266.462,278.133C267.369,279.211 268.067,280.192 268.635,280.977C272.653,286.526 274.167,291.14 272.98,294.876C272.851,295.244 267.155,311.163 247.764,319.187C237.73,323.34 224.066,325.373 205.659,322.12Z" style="fill:#fff;fill-opacity:0.53;"/>
                </g>
                <path d="M193.65,151.326C198.783,151.326 202.95,155.493 202.95,160.626C202.95,165.759 198.783,169.926 193.65,169.926C188.518,169.926 184.35,165.759 184.35,160.626C184.35,155.493 188.518,151.326 193.65,151.326ZM193.65,152.826C189.345,152.826 185.85,156.321 185.85,160.626C185.85,164.931 189.345,168.426 193.65,168.426C197.955,168.426 201.45,164.931 201.45,160.626C201.45,156.321 197.955,152.826 193.65,152.826ZM193.65,157.557C195.344,157.557 196.719,158.932 196.719,160.626C196.719,162.32 195.344,163.695 193.65,163.695C191.957,163.695 190.582,162.32 190.582,160.626C190.582,158.932 191.957,157.557 193.65,157.557Z" style="fill:#ff5c5c;"/>
            </g>
        </g>
        <path id="avatar-face-shadow" d="M252.564,308.761C249.128,308.912 242.39,310.856 235.724,310.258C227.929,309.558 220.196,305.792 216.851,303.866C209.816,299.815 200.424,294.977 191.225,288.857C191.123,288.755 191,288.672 190.863,288.615C180.174,281.46 169.791,272.561 163.722,261.138C154.549,243.872 148.445,199.134 145.744,175.654C150.783,164.754 151.061,155.553 151.792,139.014C152.544,138.488 153.284,137.968 154.012,137.454C155.043,155.258 159.765,227.414 169.984,254.661C175.626,269.703 201.354,291.642 225.791,303.648C233.28,307.328 243.453,308.672 252.564,308.761ZM252.564,308.761C252.867,308.748 253.143,308.748 253.392,308.766C253.117,308.765 252.841,308.764 252.564,308.761ZM222.806,212.595C221.722,212.394 219.876,211.837 218.553,210.306C217.185,208.723 216.458,206.121 217.496,201.892C217.885,200.305 218.928,198.743 220.17,197.028C221.528,195.154 223.129,193.125 224.537,190.781C229.404,182.674 230.822,167.717 229.202,157.294C227.747,147.934 223.457,142.622 223.457,142.622C223.441,142.602 223.424,142.582 223.406,142.563C226.667,142.743 231.942,145.767 233.373,162.756C235.381,186.582 223.829,193.592 221.08,202.488C219.656,207.098 220.978,210.39 222.806,212.595ZM254.982,310.24C249.868,314.418 235.395,314.965 226.803,312.719C211.406,308.693 202.556,304.371 197.859,303.486C193.982,302.755 184.486,322.006 180.339,329.171C179.185,331.163 177.966,333.28 176.736,335.507C176.743,335.486 176.753,335.465 176.759,335.443C178.817,328.422 188.969,300.563 191.235,291.542C200.069,297.314 208.952,301.945 215.715,305.84C229.299,313.662 243.733,312.937 254.982,310.24ZM310.643,104.856C310.679,106.388 309.69,105.736 308.804,105.54C307.58,105.271 306.333,105.001 306.294,104.711C305.048,95.581 300.449,85.544 296.564,80.951C285.496,67.867 271.639,65.704 267.688,65.349C270.987,64.056 275.991,64.032 281.417,65.448C294.556,68.877 310.078,80.847 310.643,104.856ZM332.179,157.007C330.298,151.333 327.848,144.135 326.495,140.934C325.633,138.893 312.087,120.9 308.572,114.459C307.509,112.512 308.756,113.765 310.013,114.239C311.573,114.827 313.407,114.993 313.914,115.519C315.033,116.144 321.925,128.858 323.05,129.674C325.314,131.317 328.995,137.691 331.064,140.262C331.106,140.313 331.15,140.36 331.198,140.402C331.133,144.883 331.324,150.613 332.179,157.007Z" style="fill:#ff5c5c;fill-opacity:0.15;"/>
        <path id="fill" d="M171.573,304.15C169.073,316.885 161.387,317.826 140.072,318.551C148.894,307.479 151.331,295.39 144.9,285.566C144.601,287.514 144.077,289.307 143.472,290.934C140.592,298.668 133.75,303.006 124.459,305.159C130.243,291.478 129.699,281.68 123.912,275.097C120.682,293.66 110.659,301.861 93.303,298.874C93.303,298.874 113.464,286.889 104.179,268.882C98.589,258.043 97.529,247.9 98.246,239.668C79.054,249.76 75.344,262.162 86.197,276.737C61.388,268.002 60.108,247.283 79.911,223.717C89.287,212.56 83.213,202.718 80.472,192.617C75.76,175.249 72.077,161.767 77.998,149.927C87.534,130.859 101.02,138.685 114.271,110.342C118.377,101.557 121.132,89.818 124.45,72.139C131.367,35.281 175.751,10.649 209.055,5.68C249.03,-0.284 278.325,17.105 278.325,17.105C338.775,11.457 349.038,56.113 360.587,102.646C366.714,127.33 397.472,134.323 403.304,152.667C411.941,179.833 380.79,199.056 399.122,218.904C433.187,255.786 422.181,270.446 399.942,288.215C407.238,266.95 402.519,250.832 389.222,238.389C390.913,246.546 390.183,257.719 381.115,270.518C365.859,292.051 387.37,301.06 387.37,301.06C378.855,303.931 370.608,301.968 364.662,296.658C356.238,298.017 348.48,289.876 347.196,280.016C346.241,294.563 348.228,301.418 358.477,308.946C358.477,308.946 341.991,311.897 334.278,299.562C332.749,297.118 331.565,294.073 330.922,290.286C330.685,288.89 330.522,287.394 330.442,285.79C318.91,295.094 320.867,307.583 332.164,318.886C322.484,321.515 307.857,317.337 302.484,300.567C303.57,308.096 301.087,315.263 295.633,319.006C292.872,310.84 289.572,299.686 288.437,292.893C298.079,285.665 307.324,275.883 314.991,262.525C319.76,254.216 323.648,239.696 326.724,223.881C328.215,224.995 334.829,174.209 334.575,168.197C334.093,156.785 331.386,146.898 331.534,139.979C330.896,139.344 330.261,138.691 329.63,138.023C327.579,135.852 325.574,133.524 323.685,131.121C320.457,125.078 315.854,119.904 316.503,120.602C316.388,120.402 316.274,120.203 316.162,120.005C313.056,114.506 311.061,109.243 310.965,105.136C310.136,69.879 277.859,59.93 266.3,64.658C266.3,64.658 214.762,38.58 193.053,86.649C187.812,98.253 186.85,102.527 181.863,110.452C180.322,112.902 178.36,115.345 175.967,117.847C172.016,121.98 166.891,126.274 160.551,131.025C158.396,132.219 156.167,133.778 153.979,135.814C152.65,136.76 151.758,137.966 150.343,138.952C149.595,155.794 148.927,164.75 143.76,175.772C142.891,177.624 145.857,186.811 147.086,197.694C148.513,210.331 150.915,219.762 150.811,223.509C153.781,239.074 157.492,253.682 161.9,261.978C168.07,273.59 178.697,282.771 189.575,290.088C188.259,297.925 183.211,314.616 180.249,322.908C177.543,323.001 174.361,321.843 172.797,318.331C171.33,315.038 171.04,309.921 171.573,304.15C171.896,302.505 172.133,300.664 172.301,298.6C171.986,300.49 171.739,302.352 171.573,304.15ZM242.984,280.813C234.013,280.813 222.296,277.895 216.07,270.961C212.631,267.13 211.167,262.46 210.768,254.512C210.399,247.159 213.688,235.23 225.404,228.622C233.232,224.206 238.608,227.898 244.548,227.898C250.127,227.898 255.335,223.798 262.723,229.305C273.442,237.293 276.528,246.476 276.159,253.829C275.76,261.777 273.337,267.13 269.897,270.961C263.671,277.895 251.955,280.813 242.984,280.813ZM211.459,258.131C211.305,261.991 226.544,269.44 243.342,269.353C259.4,269.27 275.371,261.594 275.224,257.903C275.026,252.95 270.525,242.43 260.066,238.247C255.671,236.489 248.997,238.49 243.463,238.49C237.928,238.49 231.252,236.489 226.857,238.247C216.398,242.43 211.657,253.178 211.459,258.131ZM215.361,167.858C215.309,167.925 215.285,168.008 215.245,168.077C215.022,168.463 214.087,163.024 211.808,160.808C208.139,157.24 202.392,151.658 198.089,151.096C197.226,150.984 188.879,148.584 176.32,156.231C164.466,163.448 159.192,155.811 159.192,155.811C159.192,155.811 174.944,134.481 194.757,138.571C198.041,139.249 204.713,142.633 208.996,146.384C211.24,148.35 214.376,152.482 215.623,155.766C216.995,159.38 216.64,166.209 215.361,167.858ZM322.403,155.717C322.584,155.933 321.236,157.251 321.236,157.251C321.236,157.251 315.829,161.768 303.974,154.551C291.415,146.904 284.269,150.744 282.206,151.576C275.682,154.209 264.585,164.419 267.579,167.756C267.266,167.987 267.013,167.955 266.809,167.756C266.203,167.166 265.019,163.367 264.915,162.37C264.345,156.914 267.174,151.63 271.058,147.584C275.581,142.873 282.733,139.009 286.018,138.331C305.798,134.248 320.251,153.143 322.403,155.717ZM413.942,369.715C415.61,371.623 416.949,373.314 418.129,374.581C427.42,384.56 427.595,399.273 425.905,399.993C425.905,399.993 386.136,515.473 186.271,400.142C138.448,372.546 52.267,399.706 52.267,399.706C52.392,393.383 52.346,385.222 60.084,374.581C64.363,368.698 72.804,356.471 95.984,351.42C117.627,346.704 156.318,344.53 176.649,330.833C175.483,333.534 174.676,335.856 175.015,337.555C178.193,353.516 212.925,381.971 238.968,381.283C265.011,381.971 299.152,354.336 302.331,338.375C302.754,336.25 301.386,333.151 299.764,329.552C319.529,344.4 359.929,346.56 382.23,351.42C395.49,354.309 403.705,359.73 409.236,364.838C411.071,366.533 412.611,368.193 413.942,369.715ZM312.611,113.239C311.761,113.085 310.946,112.968 310.175,112.879L310.033,112.863C306.675,112.491 304.161,112.669 303.162,112.78C297.575,113.404 291.505,115.49 285.883,117.963C276.292,122.182 268.003,127.527 265.624,128.658C264.856,129.024 264.247,129.136 263.751,128.978C263.005,128.74 262.617,127.957 262.331,127.093C262.197,126.686 262.094,126.254 262.016,125.818C261.739,124.264 261.788,122.655 261.905,121.919C261.92,121.893 261.997,121.759 262.064,121.675C262.244,121.448 262.499,121.202 262.816,120.935C263.924,119.997 265.712,118.872 267.938,117.658C276.8,112.823 292.491,106.687 300.941,106.018C303.674,105.802 306.117,105.886 308.305,106.209L308.334,106.213C309.142,106.333 309.915,106.486 310.656,106.668C310.953,108.675 311.633,110.895 312.611,113.239ZM181.39,116.969C180.479,116.826 179.572,116.705 178.673,116.608C180.637,114.469 182.279,112.368 183.606,110.259L183.783,109.977C184.582,110.093 185.395,110.222 186.22,110.364C193.951,111.69 202.632,114.061 208.571,116.297C210.943,117.191 212.87,118.057 214.098,118.832C214.449,119.053 214.736,119.261 214.946,119.461C215.023,119.534 215.118,119.656 215.137,119.68C215.416,120.593 215.783,122.94 215.432,124.863C215.391,125.088 215.343,125.31 215.283,125.52C215.103,126.145 214.816,126.673 214.288,126.927C213.819,127.152 213.2,127.126 212.389,126.87C209.431,125.94 197.547,120.362 185.399,117.724C184.062,117.433 182.722,117.178 181.39,116.969Z" style="fill:#ccf3f0;"/>
        <path id="outline" d="M301.228,328.509C309.011,334.268 319.972,338.053 331.718,340.85C349.756,345.144 369.644,347.086 383.019,350.001C406.639,355.148 415.226,367.568 419.598,373.607C427.214,384.125 429.797,392.955 427.536,400.033L427.528,400.058C427.528,400.058 417.468,429.392 382.019,444.062C346.92,458.588 286.679,458.775 186.249,400.822C167.299,389.887 142.262,387.669 119.049,388.898C84.049,390.751 53.156,400.486 53.156,400.486C52.806,400.596 52.425,400.531 52.131,400.311C51.837,400.092 51.668,399.744 51.675,399.377C51.803,392.89 51.771,384.521 59.71,373.605C64.07,367.61 72.669,355.147 96.288,350.001C109.271,347.171 128.389,345.258 145.997,341.222C157.46,338.594 168.28,335.073 176.284,329.765C177.08,327.943 178.025,325.954 178.879,323.872C175.607,323.169 173.631,321.87 172.427,320.218C171.152,318.469 170.731,316.276 170.687,313.792C170.674,313.111 170.69,312.406 170.719,311.682C169.086,313.914 166.75,315.682 164.035,317.025C156.35,320.828 145.629,321.155 140.252,319.322C139.901,319.203 139.63,318.92 139.526,318.564C139.422,318.209 139.498,317.825 139.728,317.535C147.451,307.842 150.186,297.354 145.928,288.428C145.679,289.333 145.393,290.199 145.085,291.024C142.075,299.109 134.974,303.711 125.263,305.962C124.845,306.059 124.409,305.913 124.134,305.586C123.858,305.258 123.79,304.804 123.957,304.409C128.965,292.563 129.171,283.747 125.089,277.495C123.27,285.815 119.95,291.882 115.156,295.655C109.853,299.828 102.717,301.249 93.656,299.689C93.186,299.608 92.817,299.243 92.73,298.774C92.643,298.305 92.858,297.832 93.268,297.588C93.268,297.588 98.118,294.699 101.854,289.647C105.52,284.689 108.1,277.605 103.713,269.098C98.469,258.928 97.132,249.358 97.517,241.351C89.339,245.955 84.359,250.995 82.587,256.561C80.714,262.438 82.5,268.824 87.657,275.75C87.956,276.152 87.958,276.702 87.661,277.105C87.364,277.508 86.838,277.67 86.366,277.504C76.051,273.873 69.696,268.193 67.045,261.184C63.108,250.775 67.36,237.226 79.586,222.678C84.916,216.335 84.963,210.438 83.598,204.67C82.64,200.624 81.013,196.637 79.92,192.608C75.119,174.915 71.494,161.173 77.526,149.111C81.462,141.241 86.042,137.805 91.005,134.651C98.088,130.15 105.982,126.245 113.786,109.553C117.863,100.832 120.583,89.174 123.877,71.622C126.69,56.635 135.575,43.623 147.418,33.096C165.059,17.415 189.26,7.257 209.434,4.247C246.098,-1.223 273.872,12.76 278.705,15.398C278.849,15.377 278.999,15.383 279.149,15.42C279.29,15.456 279.418,15.516 279.53,15.595C297.576,14.024 311.172,16.938 321.685,23.003C334.135,30.187 342.282,41.807 348.318,55.795C354.275,69.599 358.181,85.716 362.239,102.066C365.237,114.144 374.312,121.853 383.301,128.828C392.683,136.108 401.957,142.645 404.936,152.015C409.346,165.888 403.687,177.747 399.176,188.658C394.936,198.913 391.706,208.297 400.505,217.824C417.879,236.636 423.622,249.85 422.323,260.558C421.018,271.314 412.594,279.693 401.199,288.798C400.804,289.114 400.247,289.131 399.833,288.839C399.419,288.548 399.247,288.018 399.411,287.539C406.064,268.149 402.513,253.138 391.431,241.347C392.281,249.309 390.672,259.464 382.591,270.87C378.231,277.023 376.972,282.085 377.417,286.182C378.44,295.591 388.357,299.703 388.357,299.703C388.794,299.886 389.072,300.32 389.055,300.794C389.038,301.267 388.73,301.681 388.281,301.832C379.534,304.782 371.058,302.86 364.85,297.551C358.183,298.334 351.905,293.677 348.679,286.877C348.789,291.703 349.546,295.503 351.352,298.853C353.078,302.053 355.76,304.829 359.697,307.721C360.064,307.991 360.235,308.453 360.132,308.897C360.029,309.34 359.672,309.68 359.224,309.76C359.224,309.76 341.951,312.8 333.859,299.859C332.262,297.305 331.018,294.127 330.346,290.17C330.219,289.421 330.113,288.644 330.028,287.838C326.751,290.966 324.945,294.415 324.489,298.04C323.683,304.437 327.035,311.29 333.516,317.774C333.803,318.061 333.916,318.48 333.811,318.872C333.707,319.265 333.401,319.572 333.009,319.678C324.074,322.105 311.07,319.04 304.286,306.215C303.723,311.486 301.384,316.152 297.527,319.127C297.976,320.438 298.407,321.661 298.809,322.762C299.538,324.761 300.41,326.697 301.228,328.509ZM146.634,285.001C152.775,294.749 150.754,306.598 142.555,317.598C147.855,318.767 156.587,318.17 163.025,314.984C167.559,312.74 170.962,309.183 170.915,303.896C170.914,303.691 170.966,303.498 171.06,303.33C171.728,297.686 172.315,294.634 169.415,289.221C162.573,276.449 150.259,260.368 145.298,246.166C141.833,236.247 141.927,227.219 149.313,220.647C149.427,220.545 149.557,220.47 149.693,220.422C147.009,205.823 144.969,190.705 143.615,179.355C141.454,183.349 138.632,187.675 134.918,192.722C120.304,212.577 115.155,230.09 127.839,245.085C137.903,256.983 146.102,269.025 146.807,280.365C146.908,281.99 146.833,283.537 146.634,285.001ZM372.417,194.669C376.627,189.018 382.134,179.753 384.094,170.545C385.728,162.869 384.884,155.216 378.408,149.907C337.601,116.46 335.177,96.37 331.344,78.458C328.855,66.829 325.77,56.134 310.612,43.144C305.47,38.737 298.635,37.002 292.297,36.471C284.244,35.796 276.964,37.079 274.766,37.524L268.448,62.653C271.983,61.809 276.688,61.93 281.722,63.244C295.596,66.864 312.054,79.452 312.65,104.803C312.768,109.837 315.876,116.64 320.334,123.454C323.871,128.858 328.27,134.261 332.793,138.784C332.857,138.836 332.915,138.894 332.967,138.958C337.065,143.033 341.256,146.378 344.992,148.339C369.27,161.083 374.323,182.242 372.417,194.669ZM365.967,295.502C370.995,299.993 377.757,301.956 384.887,300.412C382.217,298.755 378.175,295.582 376.216,290.688C374.18,285.602 374.308,278.621 380.733,269.553C389.552,257.105 390.299,246.247 388.654,238.314C386.892,229.815 382.416,224.71 382.416,224.71C382.403,224.695 382.391,224.68 382.378,224.664L382.377,224.663C379.025,220.432 375.357,217.882 372.531,215.474C370.193,213.482 368.41,211.554 367.638,209.041C366.87,206.536 367.081,203.411 368.933,198.976L368.935,198.97C373.1,188.834 370.564,164.335 343.933,150.355C340.59,148.6 336.885,145.778 333.195,142.323C333.213,149.002 333.844,157.974 336.227,167.617C338.641,177.386 342.855,187.848 350.069,197.303C359.879,210.16 364.743,220 366.119,229.162C367.503,238.376 365.378,246.931 361.075,257.199C354.103,273.836 357.642,288.068 365.967,295.502ZM332.127,285.474C332.206,287.011 332.364,288.447 332.592,289.789C333.206,293.406 334.33,296.317 335.79,298.652C341.225,307.343 351.252,308.022 356.081,307.791C353.039,305.267 350.862,302.742 349.348,299.934C346.568,294.779 346.015,288.639 346.606,279.635C346.644,279.05 347.12,278.59 347.706,278.571C348.291,278.553 348.796,278.981 348.871,279.562C349.943,287.79 355.738,294.847 362.572,295.337C355.028,287.019 352.074,272.785 358.975,256.319C363.092,246.493 365.191,238.318 363.867,229.5C362.535,220.629 357.758,211.134 348.259,198.685C342.243,190.801 338.251,182.239 335.632,173.927C334.666,182.828 333.345,193.67 331.647,204.818C331.759,204.848 331.868,204.895 331.97,204.961C338.168,208.942 340.992,216.236 341.804,224.249C342.986,235.904 339.945,249.043 337.607,254.954C333.249,267.99 331.753,277.88 332.122,285.376C332.124,285.409 332.126,285.441 332.127,285.474ZM149.917,81.961C148.923,105.202 142.544,113.13 128.94,126.517C112.22,142.97 105.792,159.884 105.865,171.925C105.901,177.98 107.561,182.771 110.44,185.466C109.244,179.94 110.429,174.095 114.449,167.789C119.055,160.563 127.456,152.684 140.324,143.95C143.637,141.701 146.761,139.562 149.7,137.515C149.739,137.484 149.78,137.456 149.822,137.43C151.221,136.456 152.576,135.503 153.89,134.568C156.371,133.011 158.267,131.518 159.889,130.211C166.21,125.505 171.334,121.257 175.301,117.171C175.613,116.826 179.911,111.978 181.446,109.539C186.404,101.661 187.352,97.409 192.561,85.874C212.689,41.308 257.896,59.073 266.078,62.736L272.476,37.291C268.312,35.832 251.462,29.994 235.042,25.205C217.841,20.188 198.026,25.798 181.78,36.921C165.529,48.047 152.821,64.71 149.917,81.961ZM177.217,118.436C176.173,119.546 175.004,120.75 173.518,122.13C171.501,124.002 169.341,125.69 167.752,126.977C167.752,126.977 167.776,126.968 167.771,126.972C166.647,127.841 163.074,130.641 161.009,132.194C159.156,133.588 157.352,134.884 155.383,136.289C155.265,136.396 154.726,136.832 154.554,136.879C154.285,137.07 154.015,137.261 153.742,137.454C153.015,137.968 152.275,138.488 151.523,139.014C150.792,155.553 150.513,164.754 145.475,175.654C148.175,199.134 154.279,243.872 163.453,261.138C169.522,272.561 179.905,281.46 190.594,288.615C190.731,288.672 190.853,288.755 190.955,288.857C200.154,294.977 209.546,299.815 216.581,303.866C217.287,304.272 217.995,304.654 218.705,305.013C229.798,310.625 241.325,310.582 250.949,308.739C257.357,307.512 262.921,305.487 266.954,303.802C283.443,296.912 301.358,284.635 314.55,261.652C320.784,250.791 325.47,229.229 328.826,208.13C331.198,193.222 332.894,178.54 333.969,167.971C333.04,164.181 332.376,160.495 331.909,157.007C331.054,150.613 330.864,144.883 330.928,140.402C330.881,140.36 330.836,140.313 330.795,140.262C329.344,138.461 327.178,136.133 326.243,135.102C325.831,134.648 319.341,126.461 318.189,124.701C317.398,123.493 314.974,118.96 314.433,117.862C314.076,117.136 313.217,115.385 313.217,115.385C313.217,115.385 312.582,115.266 312.255,115.207C311.45,115.061 310.678,114.95 309.947,114.866L309.812,114.851C306.671,114.503 304.319,114.663 303.384,114.768C297.983,115.37 292.122,117.403 286.688,119.794C277.122,124.002 268.856,129.336 266.483,130.464C265.123,131.112 264.021,131.164 263.143,130.883C261.826,130.463 260.937,129.246 260.433,127.72C260.269,127.225 260.142,126.7 260.047,126.168C259.723,124.35 259.793,122.466 259.93,121.604C259.968,121.365 260.049,121.135 260.169,120.925L260.498,120.431C260.746,120.119 261.09,119.775 261.524,119.408C262.707,118.408 264.606,117.197 266.98,115.902C276.053,110.952 292.132,104.709 300.783,104.024C303.683,103.795 306.275,103.888 308.597,104.23L308.628,104.235C309.224,104.324 309.803,104.429 310.365,104.549C309.676,80.745 294.231,68.862 281.147,65.448C275.722,64.032 270.718,64.056 267.418,65.349C267.371,65.368 267.324,65.387 267.278,65.406C266.966,65.533 266.622,65.514 266.332,65.368L266.331,65.367C266.037,65.218 215.818,39.913 194.637,86.811C189.972,97.142 188.671,101.694 184.957,108.131C185.485,108.213 186.019,108.3 186.558,108.393C194.416,109.74 203.24,112.152 209.276,114.426C211.806,115.378 213.855,116.314 215.165,117.14C215.646,117.444 216.035,117.737 216.323,118.011L216.718,118.455C216.866,118.646 216.978,118.863 217.049,119.094C217.38,120.173 217.814,122.948 217.4,125.221C217.347,125.513 217.283,125.8 217.205,126.072C216.855,127.29 216.183,128.235 215.155,128.729C214.324,129.129 213.226,129.23 211.789,128.778C208.849,127.853 197.046,122.3 184.975,119.678C183.676,119.396 182.374,119.148 181.08,118.945C180.201,118.807 179.103,118.681 178.459,118.596C178.045,118.542 177.743,118.414 177.217,118.436ZM309.838,159.967C306.359,168.572 301.11,173.231 291.641,174.072C285.348,174.632 276.736,172.196 271.131,170.1C269.066,169.328 267.287,168.713 266.427,168.09C266.022,167.796 265.958,166.9 265.976,166.359C265.997,165.719 266.179,165.182 266.252,164.935C269.19,154.959 282.123,146.826 290.984,146.341C292.273,146.27 294.89,146.391 297.693,147.354C302.373,148.962 305.841,151.852 308.193,153.619C308.892,154.143 309.871,154.86 310.017,154.967C313.296,157.369 314.951,157.622 315.676,157.752C316.601,157.917 318.345,158.085 321,156.515C321.405,156.275 321.742,156.041 321.743,156.041C322.17,155.712 322.414,155.66 322.479,155.78C322.543,155.899 322.306,156.481 322.131,156.757C321.896,157.129 321.675,157.363 321.066,158.008C317.879,161.382 314.444,161.053 314.384,161.052C312.791,161.014 311.333,160.598 309.838,159.967ZM267.452,167.109C271.445,168.633 283.533,172.537 291.364,171.501C300.411,170.304 304.59,165.604 307.194,158.802L307.235,158.693C306.407,158.223 304.856,157.326 303.453,156.461C301.454,155.228 299.823,154.376 297.992,153.384C295.89,152.245 292.833,151.572 290.841,151.528C287.06,151.445 283.657,152.304 280.345,154.004C276.747,155.85 270.879,160.254 269.251,162.606C268.525,163.656 267.879,164.821 267.41,166.161C267.364,166.293 267.222,167.021 267.452,167.109ZM313.195,151.492C313.133,151.545 313.088,151.596 313.009,151.615C312.939,151.632 312.83,151.628 312.632,151.518C312.453,151.419 312.453,151.455 311.441,150.531C303.665,143.429 293.244,140.748 284.459,142.987C276.535,145.007 271.279,150.377 268.371,153.878C268.239,154.037 268.142,154.086 268.058,154.094C267.997,154.1 267.936,154.085 267.868,154.049C267.813,154.019 267.747,153.968 267.652,153.912C267.639,153.905 267.617,153.891 267.591,153.868L267.53,153.801L267.481,153.718L267.443,153.608C267.41,153.471 267.402,153.238 267.569,152.868C267.606,152.786 268.387,151.799 268.46,151.709C277.418,140.532 286.928,139.568 290.895,139.5C298.923,139.363 307.139,143.458 313.031,150.232C313.128,150.343 313.31,150.732 313.337,151.018C313.348,151.128 313.338,151.226 313.313,151.306L313.266,151.408L313.195,151.492ZM275.917,268.632C276.925,268.632 277.743,269.45 277.743,270.458C277.743,271.466 276.925,272.285 275.917,272.285C274.909,272.285 274.09,271.466 274.09,270.458C274.09,269.45 274.909,268.632 275.917,268.632ZM226.324,210.283C225.725,210.091 225.395,209.449 225.588,208.851C225.78,208.252 226.421,207.923 227.02,208.115C229.807,209.009 232.438,210.653 234.968,212.086C237.247,213.377 239.424,214.515 241.59,214.524C243.913,214.534 245.93,213.253 248.139,211.866C250.65,210.291 253.361,208.548 256.767,207.813C257.382,207.68 257.988,208.071 258.121,208.685C258.253,209.3 257.862,209.906 257.248,210.039C253.461,210.856 250.627,213.072 247.899,214.687C245.829,215.912 243.806,216.811 241.581,216.801C239.538,216.793 237.466,215.998 235.347,214.89C232.487,213.393 229.519,211.309 226.324,210.283ZM171.825,159.967C170.329,160.598 168.872,161.014 167.278,161.052C167.218,161.053 163.784,161.382 160.596,158.008C159.988,157.363 159.767,157.129 159.531,156.757C159.357,156.481 159.119,155.899 159.184,155.78C159.249,155.66 159.493,155.712 159.92,156.041C159.921,156.041 160.258,156.275 160.663,156.515C163.317,158.085 165.062,157.917 165.987,157.752C166.712,157.622 168.366,157.369 171.646,154.967C171.792,154.86 172.771,154.143 173.47,153.619C175.822,151.852 179.29,148.962 183.97,147.354C186.773,146.391 189.39,146.27 190.679,146.341C199.54,146.826 212.473,154.959 215.411,164.935C215.484,165.182 215.665,165.719 215.687,166.359C215.705,166.9 215.64,167.796 215.235,168.09C214.376,168.713 212.596,169.328 210.532,170.1C204.927,172.196 196.315,174.632 190.021,174.072C180.553,173.231 175.304,168.572 171.825,159.967ZM214.21,167.109C214.441,167.021 214.299,166.293 214.253,166.161C213.784,164.821 213.138,163.656 212.411,162.606C210.784,160.254 204.916,155.85 201.318,154.004C198.005,152.304 194.603,151.445 190.822,151.528C188.83,151.572 185.773,152.245 183.67,153.384C181.839,154.376 180.208,155.228 178.209,156.461C176.806,157.326 175.256,158.223 174.427,158.693L174.469,158.802C177.073,165.604 181.252,170.304 190.299,171.501C198.129,172.537 210.218,168.633 214.21,167.109ZM167.987,151.492L167.916,151.408L167.869,151.306C167.844,151.226 167.834,151.128 167.845,151.018C167.872,150.732 168.054,150.343 168.151,150.232C174.043,143.458 182.259,139.363 190.287,139.5C194.254,139.568 203.764,140.532 212.722,151.709C212.795,151.799 213.576,152.786 213.613,152.868C213.78,153.238 213.772,153.471 213.739,153.608L213.701,153.718L213.652,153.801L213.591,153.868C213.565,153.891 213.543,153.905 213.53,153.912C213.435,153.968 213.369,154.019 213.314,154.049C213.246,154.085 213.186,154.1 213.124,154.094C213.04,154.086 212.943,154.037 212.811,153.878C209.903,150.377 204.648,145.007 196.723,142.987C187.938,140.748 177.517,143.429 169.741,150.531C168.729,151.455 168.729,151.419 168.55,151.518C168.352,151.628 168.243,151.632 168.173,151.615C168.094,151.596 168.049,151.545 167.987,151.492ZM223.137,142.563C223.154,142.582 223.171,142.602 223.187,142.622C223.187,142.622 227.477,147.934 228.932,157.294C230.553,167.717 229.135,182.674 224.267,190.781C222.859,193.125 221.258,195.154 219.901,197.028C218.658,198.743 217.616,200.305 217.226,201.892C216.189,206.121 216.915,208.723 218.284,210.306C219.607,211.837 221.452,212.394 222.537,212.595C223.08,212.695 223.432,212.707 223.432,212.707C224.06,212.729 224.552,213.257 224.53,213.885C224.508,214.513 223.981,215.005 223.352,214.983C223.352,214.983 219.183,214.83 216.56,211.795C214.857,209.823 213.722,206.615 215.015,201.349C215.38,199.861 216.2,198.373 217.266,196.811C218.726,194.672 220.66,192.365 222.314,189.609C226.959,181.873 228.228,167.59 226.682,157.644C225.335,148.981 221.411,144.047 221.411,144.047C221.017,143.556 221.096,142.839 221.587,142.446C222.057,142.069 222.735,142.126 223.137,142.563ZM260.749,214.968C260.13,215.072 259.542,214.654 259.438,214.034C259.333,213.414 259.752,212.826 260.372,212.722C263.739,212.156 265.699,210.492 266.455,208.331C267.632,204.966 266.017,200.61 262.806,197.728C262.338,197.308 262.3,196.588 262.719,196.12C263.139,195.653 263.86,195.614 264.327,196.033C268.26,199.563 270.047,204.962 268.605,209.083C267.616,211.911 265.155,214.227 260.749,214.968ZM242.984,281.813C233.758,281.813 221.729,278.76 215.326,271.629C211.754,267.651 210.184,262.817 209.77,254.562C209.388,246.95 212.782,234.593 224.913,227.751C229.87,224.955 233.892,225.222 237.673,225.897C240.003,226.312 242.231,226.898 244.548,226.898C246.717,226.898 248.827,226.248 251.04,225.825C254.688,225.128 258.584,224.973 263.321,228.503C274.4,236.759 277.539,246.279 277.158,253.879C276.744,262.118 274.207,267.658 270.641,271.629C264.239,278.76 252.209,281.813 242.984,281.813ZM212.459,258.171C212.447,258.448 212.612,258.738 212.852,259.065C213.398,259.811 214.36,260.611 215.642,261.431C221.021,264.872 231.807,268.413 243.336,268.353C254.366,268.296 265.358,264.601 270.908,261.14C272.239,260.31 273.245,259.507 273.819,258.769C274.06,258.461 274.235,258.197 274.225,257.943C274.035,253.207 269.696,243.176 259.694,239.175C257.628,238.349 255.024,238.441 252.288,238.705C249.346,238.988 246.26,239.49 243.463,239.49C240.665,239.49 237.579,238.988 234.637,238.705C231.9,238.441 229.295,238.349 227.229,239.175C217.221,243.178 212.648,253.432 212.459,258.171ZM211.753,252.644C213.864,247.199 218.611,240.468 226.486,237.318C228.367,236.566 230.637,236.435 233.065,236.575C236.449,236.77 240.16,237.49 243.463,237.49C246.765,237.49 250.475,236.77 253.859,236.575C256.287,236.435 258.556,236.566 260.437,237.318C268.597,240.582 273.263,247.557 275.185,253.03C275.297,246.059 272.123,237.557 262.126,230.106C257.996,227.029 254.596,227.182 251.416,227.79C249.076,228.236 246.841,228.898 244.548,228.898C242.113,228.898 239.77,228.302 237.322,227.866C233.938,227.262 230.332,226.99 225.895,229.493C215.515,235.348 211.984,245.528 211.753,252.644ZM273.955,261.429C273.393,261.889 272.727,262.362 271.967,262.837C266.204,266.431 254.799,270.294 243.347,270.353C231.36,270.415 220.156,266.693 214.564,263.116C213.82,262.64 213.171,262.163 212.625,261.696C213.403,265.287 214.716,267.956 216.814,270.293C222.864,277.03 234.267,279.813 242.984,279.813C251.7,279.813 263.104,277.03 269.153,270.293C271.218,267.993 272.893,265.12 273.955,261.429ZM390.809,237.497C403.465,249.485 408.42,264.778 402.716,284.633C412.079,276.885 418.935,269.573 420.062,260.283C421.31,249.997 415.523,237.441 398.832,219.37C389.299,209.048 392.478,198.898 397.072,187.788C401.394,177.334 406.991,165.998 402.765,152.705C399.912,143.731 390.891,137.6 381.904,130.627C372.524,123.348 363.157,115.22 360.029,102.614C356.002,86.391 352.138,70.394 346.227,56.697C340.395,43.184 332.575,31.916 320.547,24.976C310.366,19.102 297.187,16.341 279.708,17.866L275.378,35.09C278.476,34.532 285.175,33.588 292.488,34.201C299.28,34.77 306.583,36.691 312.094,41.414C327.791,54.867 330.994,65.938 333.571,77.981C337.336,95.578 339.762,115.287 379.851,148.146C387.043,154.041 388.136,162.496 386.322,171.019C383.718,183.255 375.088,195.593 370.959,200.037C369.454,203.7 369.174,206.283 369.816,208.373C370.466,210.491 372.037,212.062 374.008,213.74C376.923,216.224 380.689,218.871 384.147,223.229C384.497,223.635 388.937,228.905 390.809,237.497ZM413.942,369.955C412.642,368.411 411.099,366.753 409.236,365.078C403.748,360.142 395.489,355.049 382.534,352.226C369.148,349.309 349.244,347.363 331.191,343.065C320.82,340.597 311.059,337.346 303.441,332.726C303.264,332.618 303.087,332.509 302.911,332.4C303.243,333.242 303.522,334.04 303.723,334.784C304.082,336.111 304.193,337.294 303.994,338.291C302.689,344.845 296.36,353.362 287.449,361.124C274.23,372.639 255.384,382.522 239.517,382.115C223.648,382.522 204.586,372.344 191.194,360.59C182.172,352.671 175.749,344.022 174.444,337.471C174.243,336.461 174.385,335.244 174.761,333.869C174.814,333.676 174.872,333.479 174.934,333.279C167.06,337.84 157.053,341.024 146.506,343.441C128.89,347.48 109.762,349.395 96.773,352.226C74.033,357.181 65.749,369.173 61.552,374.944C54.637,384.452 54.116,391.931 53.983,397.857L54.159,397.806C55.815,397.319 58.636,396.52 62.387,395.562C74.344,392.51 95.743,387.851 118.928,386.624C142.582,385.371 168.078,387.708 187.387,398.849C236.467,427.171 275.837,441.54 307.303,447.101C339.586,452.807 363.55,449.241 381.148,441.958C415.157,427.884 425.147,399.964 425.374,399.32C427.455,392.767 424.801,384.675 417.753,374.942C416.757,373.566 415.532,371.845 413.942,369.955ZM99.927,239.46C99.225,247.517 100.267,257.445 105.737,268.054C110.636,277.553 107.778,285.465 103.685,291.001C101.416,294.069 98.764,296.394 96.882,297.838C103.848,298.559 109.46,297.239 113.747,293.865C118.641,290.013 121.78,283.539 123.337,274.595C123.412,274.163 123.728,273.813 124.15,273.694C124.572,273.575 125.025,273.709 125.314,274.038C131.03,280.541 131.982,290.058 126.907,303.189C134.684,300.989 140.43,297.001 142.951,290.23C143.979,287.47 144.764,284.212 144.534,280.507C143.854,269.569 135.807,258.031 126.1,246.556C112.748,230.771 117.7,212.274 133.083,191.372C137.767,185.007 141.007,179.819 143.274,174.984L143.276,174.982C148.142,164.602 148.508,155.856 149.171,140.65C146.766,142.316 144.244,144.041 141.603,145.834C129.071,154.34 120.855,161.976 116.369,169.013C112.09,175.726 111.276,181.847 113.445,187.611C117.072,192.691 117.126,197.399 115.215,202.646C113.406,207.614 109.749,213.102 105.806,219.971C105.798,219.985 105.79,219.999 105.781,220.013C105.781,220.013 100.952,227.687 99.927,239.46ZM310.561,106.645C309.85,106.473 309.108,106.328 308.334,106.213L308.305,106.209C306.117,105.886 303.674,105.802 300.941,106.018C292.491,106.687 276.8,112.823 267.938,117.658C265.712,118.872 263.924,119.997 262.816,120.935C262.499,121.202 262.244,121.448 262.064,121.675C261.997,121.759 261.92,121.893 261.905,121.919C261.788,122.655 261.739,124.264 262.016,125.818C262.094,126.254 262.197,126.686 262.331,127.093C262.617,127.957 263.005,128.74 263.751,128.978C264.247,129.136 264.856,129.024 265.624,128.658C268.003,127.527 276.292,122.182 285.883,117.963C291.505,115.49 297.575,113.404 303.162,112.78C304.161,112.669 306.675,112.491 310.033,112.863L310.175,112.879C310.9,112.962 311.663,113.071 312.458,113.212C311.647,111.04 310.9,108.646 310.561,106.645ZM277.494,17.332C272.588,14.672 245.487,1.171 209.77,6.5C189.979,9.453 166.237,19.415 148.931,34.798C137.475,44.982 128.837,57.543 126.116,72.042C122.774,89.85 119.985,101.669 115.849,110.517C109.085,124.985 102.25,130.213 95.901,134.266C89.842,138.133 84.208,140.842 79.563,150.13C73.753,161.748 77.494,174.97 82.118,192.012C83.218,196.064 84.85,200.075 85.814,204.145C87.331,210.553 87.251,217.097 81.33,224.143C69.791,237.873 65.46,250.554 69.175,260.378C71.32,266.049 76.156,270.696 83.722,274.018C79.72,267.54 78.63,261.477 80.416,255.869C82.419,249.584 88.109,243.797 97.715,238.644C98.869,226.976 103.549,219.289 103.842,218.819C107.702,212.095 111.303,206.732 113.076,201.866C114.703,197.398 114.708,193.38 111.68,189.06C106.826,186.702 103.639,180.494 103.587,171.939C103.512,159.48 110.043,141.917 127.343,124.893C140.499,111.947 146.694,104.301 147.644,81.795C147.646,81.748 147.651,81.701 147.659,81.655C150.634,63.822 163.695,46.542 180.493,35.042C197.319,23.522 217.865,17.822 235.68,23.019C251.901,27.75 268.54,33.501 273.034,35.073L277.494,17.332ZM178.892,116.632C179.72,116.725 180.553,116.838 181.39,116.969C182.722,117.178 184.062,117.433 185.399,117.724C197.547,120.362 209.431,125.94 212.389,126.87C213.2,127.126 213.819,127.152 214.288,126.927C214.816,126.673 215.103,126.145 215.283,125.52C215.343,125.31 215.391,125.088 215.432,124.863C215.783,122.94 215.416,120.593 215.137,119.68C215.118,119.656 215.023,119.534 214.946,119.461C214.736,119.261 214.449,119.053 214.098,118.832C212.87,118.057 210.943,117.191 208.571,116.297C202.632,114.061 193.951,111.69 186.22,110.364C185.418,110.226 184.627,110.1 183.85,109.986C183.695,110.238 183.537,110.493 183.374,110.752C182.145,112.704 180.653,114.653 178.892,116.632ZM305.565,303.652C311.083,315.606 322.141,319.255 330.479,317.897C324.365,311.253 321.411,304.254 322.229,297.755C322.806,293.179 325.234,288.814 329.827,284.964C329.544,277.305 331.08,267.287 335.457,254.202C335.464,254.182 335.471,254.163 335.479,254.143C337.736,248.452 340.681,235.747 339.538,224.479C338.824,217.43 336.527,210.927 331.273,207.236C331.208,207.653 331.142,208.07 331.076,208.488C327.846,228.788 323.348,249.497 317.498,260.984C317.485,261.071 317.461,261.158 317.427,261.243C315.214,266.695 310.26,273.908 306.839,281.535C304.154,287.524 302.392,293.776 303.947,299.585C304.019,299.682 304.076,299.792 304.115,299.913C304.437,300.92 304.795,301.879 305.183,302.793C305.264,302.949 305.347,303.106 305.433,303.262C305.502,303.387 305.546,303.519 305.565,303.652ZM179.712,321.717C182.545,313.907 187.401,298.405 188.909,290.176C178.091,282.87 167.6,273.797 161.441,262.206C156.956,253.765 153.18,238.822 150.168,222.963C144.175,228.839 144.427,236.769 147.448,245.415C152.374,259.516 164.63,275.465 171.423,288.145C174.7,294.262 174.008,297.605 173.251,304.196C173.244,304.258 173.233,304.318 173.216,304.375C173.338,307.692 172.913,310.923 172.964,313.751C172.999,315.725 173.255,317.487 174.267,318.876C175.254,320.23 176.948,321.183 179.712,321.717ZM296.751,316.821C300.896,313.222 302.74,307.236 301.972,300.941C300.4,295.924 301.097,290.585 302.892,285.31C303.74,282.819 304.835,280.343 306.035,277.928C301.04,283.923 295.7,288.912 290.225,293.078C291.372,299.443 294.215,309.167 296.751,316.821ZM254.713,310.24C243.464,312.937 229.03,313.662 215.445,305.84C208.682,301.945 199.8,297.314 190.965,291.542C189.241,300.159 184.518,315.187 181.769,322.723C180.694,325.67 179.317,328.485 178.241,330.977L178.24,330.98C177.615,332.428 177.073,333.748 176.801,334.903C176.615,335.692 176.554,336.404 176.678,337.026C177.916,343.244 184.134,351.362 192.697,358.878C205.676,370.271 224.107,380.245 239.484,379.838C239.505,379.837 239.525,379.837 239.545,379.838C254.921,380.244 273.142,370.566 285.953,359.407C294.401,352.048 300.523,344.061 301.761,337.846C301.901,337.143 301.777,336.314 301.525,335.378C301.08,333.731 300.218,331.812 299.274,329.716L299.273,329.714C298.399,327.776 297.454,325.695 296.669,323.543C296.185,322.216 295.672,320.711 295.112,319.097L295.09,319.031C292.605,311.485 289.554,301.465 288.192,294.583C281.437,299.449 274.52,303.109 267.832,305.903C264.397,307.339 259.892,308.999 254.713,310.24Z" style="fill:#ff5c5c;"/>
        <path id="avatar-highlight2" serif:id="avatar-highlight" d="M307.573,447.101C333.351,448.614 365.127,443.618 388.41,424.826C395.573,419.045 401.326,412.642 406.276,401.931C414.411,384.331 406.089,372.704 387.637,365.393C373.508,359.795 352.559,355.192 334.372,351.835C319.421,349.075 309.066,339.195 303.711,332.726C311.329,337.346 321.09,340.597 331.46,343.065C349.513,347.363 369.418,349.309 382.803,352.226C395.759,355.049 404.018,360.142 409.505,365.078C411.341,366.773 412.881,368.433 414.211,369.955C415.802,371.845 417.026,373.566 418.023,374.942C425.07,384.675 427.725,392.767 425.643,399.32C425.417,399.964 415.426,427.884 381.418,441.958C363.82,449.241 339.855,452.807 307.573,447.101Z" style="fill:#fff;fill-opacity:0.53;"/>
        <path d="M250.98,308.733C242.289,308.509 232.848,307.116 225.791,303.648C201.354,291.642 175.626,269.703 169.984,254.661C159.765,227.414 155.043,155.258 154.012,137.454C153.284,137.968 152.544,138.488 151.792,139.014C151.061,155.553 150.783,164.754 145.744,175.654C148.445,199.134 154.549,243.872 163.722,261.138C169.791,272.561 180.174,281.46 190.863,288.615C191,288.672 191.123,288.755 191.225,288.857C200.424,294.977 209.816,299.815 216.851,303.866C218.374,304.743 220.805,306.001 223.738,307.177C222.056,306.575 220.375,305.859 218.705,305.013C217.995,304.654 217.287,304.272 216.581,303.866C209.546,299.815 200.154,294.977 190.955,288.857C190.853,288.755 190.731,288.672 190.594,288.615C179.905,281.46 169.522,272.561 163.453,261.138C154.279,243.872 148.175,199.134 145.475,175.654C150.513,164.754 150.792,155.553 151.523,139.014C152.275,138.488 153.015,137.968 153.742,137.454C154.015,137.261 154.285,137.07 154.554,136.879C154.726,136.832 155.265,136.396 155.383,136.289C157.352,134.884 159.156,133.588 161.009,132.194C163.074,130.641 166.647,127.841 167.771,126.972C167.776,126.968 167.752,126.977 167.752,126.977C169.341,125.69 171.501,124.002 173.518,122.13C175.004,120.75 176.173,119.546 177.217,118.436C177.743,118.414 178.045,118.542 178.459,118.596C179.103,118.681 180.201,118.807 181.08,118.945C182.374,119.148 183.676,119.396 184.975,119.678C197.046,122.3 208.849,127.853 211.789,128.778C213.226,129.23 214.324,129.129 215.155,128.729C216.183,128.235 216.855,127.29 217.205,126.072C217.283,125.8 217.347,125.513 217.4,125.221C217.814,122.948 217.38,120.173 217.049,119.094C216.978,118.863 216.866,118.646 216.718,118.455L216.323,118.011C216.035,117.737 215.646,117.444 215.165,117.14C213.855,116.314 211.806,115.378 209.276,114.426C203.24,112.152 194.416,109.74 186.558,108.393C186.019,108.3 185.485,108.213 184.957,108.131C188.671,101.694 189.972,97.142 194.637,86.811C215.818,39.913 266.037,65.218 266.331,65.367L266.332,65.368C266.622,65.514 266.966,65.533 267.278,65.406C267.324,65.387 267.371,65.368 267.418,65.349C269.077,64.699 271.167,64.37 273.524,64.383C271.277,64.395 269.283,64.724 267.688,65.349C271.639,65.704 285.496,67.867 296.564,80.951C300.345,85.421 304.801,95.045 306.186,103.974C304.515,103.862 302.718,103.871 300.783,104.024C292.132,104.709 276.053,110.952 266.98,115.902C264.606,117.197 262.707,118.408 261.524,119.408C261.09,119.775 260.746,120.119 260.498,120.431L260.169,120.925C260.049,121.135 259.968,121.365 259.93,121.604C259.793,122.466 259.723,124.35 260.047,126.168C260.142,126.7 260.269,127.225 260.433,127.72C260.937,129.246 261.826,130.463 263.143,130.883C264.021,131.164 265.123,131.112 266.483,130.464C268.856,129.336 277.122,124.002 286.688,119.794C292.122,117.403 297.983,115.37 303.384,114.768C304.208,114.676 306.134,114.54 308.732,114.748C312.48,121.422 325.646,138.923 326.495,140.934C327.745,143.892 329.932,150.263 331.742,155.69C331.794,156.126 331.85,156.565 331.909,157.007C332.376,160.495 333.04,164.181 333.969,167.971C332.894,178.54 331.198,193.222 328.826,208.13C325.47,229.229 320.784,250.791 314.55,261.652C301.358,284.635 283.443,296.912 266.954,303.802C262.928,305.484 257.374,307.505 250.98,308.733ZM242.984,281.813C252.209,281.813 264.239,278.76 270.641,271.629C274.207,267.658 276.744,262.118 277.158,253.879C277.539,246.279 274.4,236.759 263.321,228.503C258.584,224.973 254.688,225.128 251.04,225.825C248.827,226.248 246.717,226.898 244.548,226.898C242.231,226.898 240.003,226.312 237.673,225.897C233.892,225.222 229.87,224.955 224.913,227.751C212.782,234.593 209.388,246.95 209.77,254.562C210.184,262.817 211.754,267.651 215.326,271.629C221.729,278.76 233.758,281.813 242.984,281.813ZM223.137,142.563C222.735,142.126 222.057,142.069 221.587,142.446C221.096,142.839 221.017,143.556 221.411,144.047C221.411,144.047 225.335,148.981 226.682,157.644C228.228,167.59 226.959,181.873 222.314,189.609C220.66,192.365 218.726,194.672 217.266,196.811C216.2,198.373 215.38,199.861 215.015,201.349C213.722,206.615 214.857,209.823 216.56,211.795C219.183,214.83 223.352,214.983 223.352,214.983C223.981,215.005 224.508,214.513 224.53,213.885C224.552,213.257 224.06,212.729 223.432,212.707C223.432,212.707 223.08,212.695 222.537,212.595C221.452,212.394 219.607,211.837 218.284,210.306C216.915,208.723 216.189,206.121 217.226,201.892C217.616,200.305 218.658,198.743 219.901,197.028C221.258,195.154 222.859,193.125 224.267,190.781C229.135,182.674 230.553,167.717 228.932,157.294C227.477,147.934 223.187,142.622 223.187,142.622C223.171,142.602 223.154,142.582 223.137,142.563ZM275.917,268.632C274.909,268.632 274.09,269.45 274.09,270.458C274.09,271.466 274.909,272.285 275.917,272.285C276.925,272.285 277.743,271.466 277.743,270.458C277.743,269.45 276.925,268.632 275.917,268.632ZM226.324,210.283C229.519,211.309 232.487,213.393 235.347,214.89C237.466,215.998 239.538,216.793 241.581,216.801C243.806,216.811 245.829,215.912 247.899,214.687C250.627,213.072 253.461,210.856 257.248,210.039C257.862,209.906 258.253,209.3 258.121,208.685C257.988,208.071 257.382,207.68 256.767,207.813C253.361,208.548 250.65,210.291 248.139,211.866C245.93,213.253 243.913,214.534 241.59,214.524C239.424,214.515 237.247,213.377 234.968,212.086C232.438,210.653 229.807,209.009 227.02,208.115C226.421,207.923 225.78,208.252 225.588,208.851C225.395,209.449 225.725,210.091 226.324,210.283ZM222.806,212.595C220.978,210.39 219.656,207.098 221.08,202.488C223.829,193.592 235.381,186.582 233.373,162.756C231.942,145.767 226.667,142.743 223.406,142.563C223.424,142.582 223.441,142.602 223.457,142.622C223.457,142.622 227.747,147.934 229.202,157.294C230.822,167.717 229.404,182.674 224.537,190.781C223.129,193.125 221.528,195.154 220.17,197.028C218.928,198.743 217.885,200.305 217.496,201.892C216.458,206.121 217.185,208.723 218.553,210.306C219.876,211.837 221.722,212.394 222.806,212.595ZM265.992,166.112C265.984,166.192 265.979,166.275 265.976,166.359C265.958,166.9 266.022,167.796 266.427,168.09C267.287,168.713 269.066,169.328 271.131,170.1C276.736,172.196 285.348,174.632 291.641,174.072C301.11,173.231 306.359,168.572 309.838,159.967C311.333,160.598 312.791,161.014 314.384,161.052C314.444,161.053 317.879,161.382 321.066,158.008C321.675,157.363 321.896,157.129 322.131,156.757C322.306,156.481 322.543,155.899 322.479,155.78C322.464,155.754 322.442,155.736 322.41,155.727C322.408,155.724 322.406,155.72 322.403,155.717C320.251,153.143 305.798,134.248 286.018,138.331C282.733,139.009 275.581,142.873 271.058,147.584C267.174,151.63 264.345,156.914 264.915,162.37C264.981,163.002 265.481,164.759 265.992,166.112ZM260.749,214.968C265.155,214.227 267.616,211.911 268.605,209.083C270.047,204.962 268.26,199.563 264.327,196.033C263.86,195.614 263.139,195.653 262.719,196.12C262.3,196.588 262.338,197.308 262.806,197.728C266.017,200.61 267.632,204.966 266.455,208.331C265.699,210.492 263.739,212.156 260.372,212.722C259.752,212.826 259.333,213.414 259.438,214.034C259.542,214.654 260.13,215.072 260.749,214.968ZM215.568,167.531C216.674,165.448 216.917,159.176 215.623,155.766C214.376,152.482 211.24,148.35 208.996,146.384C204.713,142.633 198.041,139.249 194.757,138.571C175.672,134.631 160.355,154.277 159.255,155.726C159.222,155.735 159.199,155.753 159.184,155.78C159.119,155.899 159.357,156.481 159.531,156.757C159.767,157.129 159.988,157.363 160.596,158.008C163.784,161.382 167.218,161.053 167.278,161.052C168.872,161.014 170.329,160.598 171.825,159.967C175.304,168.572 180.553,173.231 190.021,174.072C196.315,174.632 204.927,172.196 210.532,170.1C212.596,169.328 214.376,168.713 215.235,168.09C215.393,167.976 215.499,167.771 215.568,167.531Z" style="fill:none;"/>
    </g>
</svg>
