<?xml version="1.0" encoding="UTF-8" standalone="no"?>
<!DOCTYPE svg PUBLIC "-//W3C//DTD SVG 1.1//EN" "http://www.w3.org/Graphics/SVG/1.1/DTD/svg11.dtd"><svg width="100%" height="100%" viewBox="0 0 2000 1897" version="1.1" xmlns="http://www.w3.org/2000/svg" xmlns:xlink="http://www.w3.org/1999/xlink" xml:space="preserve" xmlns:serif="http://www.serif.com/" style="fill-rule:evenodd;clip-rule:evenodd;stroke-linejoin:round;stroke-miterlimit:2;">

<rect id="avatar" x="0" y="0" width="2000" height="1896.57" style="fill:none;"/><clipPath id="_clip1">

<rect x="0" y="0" width="2000" height="1896.57"/></clipPath>

<g clip-path="url(#_clip1)"><path id="avatar-vertical-lines" d="M1998.08,538.417c2.105,1.558 2.55,4.532 0.992,6.636c-1.558,2.105 -4.532,2.55 -6.637,0.992l-102.169,-75.614c-2.104,-1.558 -2.549,-4.531 -0.991,-6.636c1.558,-2.105 4.532,-2.549 6.637,-0.992l102.168,75.614Zm-1692.69,57.42c2.105,1.558 2.549,4.531 0.991,6.636c-1.558,2.105 -4.531,2.549 -6.636,0.992l-179.755,-133.034c-2.105,-1.558 -2.549,-4.531 -0.991,-6.636c1.558,-2.105 4.532,-2.549 6.637,-0.992l179.754,133.034Zm1692.69,129.745c2.105,1.557 2.55,4.531 0.992,6.636c-1.558,2.105 -4.532,2.549 -6.637,0.991l-355.065,-262.778c-2.105,-1.558 -2.549,-4.531 -0.991,-6.636c1.558,-2.105 4.532,-2.549 6.636,-0.992l355.065,262.779Zm-1698.63,53.021c2.105,1.558 2.55,4.531 0.992,6.636c-1.558,2.105 -4.532,2.549 -6.637,0.992l-291.88,-216.017c-2.105,-1.558 -2.55,-4.531 -0.992,-6.636c1.558,-2.105 4.532,-2.549 6.637,-0.992l291.88,216.017Zm1698.63,134.143c2.105,1.558 2.55,4.532 0.992,6.637c-1.558,2.105 -4.532,2.549 -6.637,0.991l-277.46,-205.344c-2.105,-1.558 -2.549,-4.531 -0.991,-6.636c1.558,-2.105 4.532,-2.55 6.636,-0.992l277.46,205.344Zm-1718.02,38.675c2.105,1.558 2.549,4.532 0.991,6.637c-1.558,2.105 -4.531,2.549 -6.636,0.991l-272.496,-201.67c-2.105,-1.558 -2.55,-4.532 -0.992,-6.637c1.558,-2.105 4.532,-2.549 6.637,-0.991l272.496,201.67Zm1718.02,148.49c2.105,1.558 2.55,4.531 0.992,6.636c-1.558,2.105 -4.532,2.549 -6.637,0.991l-320.926,-237.512c-2.105,-1.558 -2.549,-4.532 -0.991,-6.637c1.558,-2.104 4.531,-2.549 6.636,-0.991l320.926,237.513Zm-1755.95,10.599c2.104,1.558 2.549,4.532 0.991,6.637c-1.558,2.105 -4.532,2.549 -6.637,0.991l-234.56,-173.595c-2.105,-1.558 -2.55,-4.531 -0.992,-6.636c1.558,-2.105 4.532,-2.549 6.637,-0.991l234.561,173.594Zm115.975,-569.244c2.104,1.558 2.549,4.531 0.991,6.636c-1.558,2.105 -4.532,2.549 -6.637,0.991l-106.018,-78.462c-2.105,-1.558 -2.549,-4.531 -0.991,-6.636c1.558,-2.105 4.532,-2.549 6.637,-0.992l106.018,78.463Zm1639.98,90.733c2.105,1.558 2.55,4.532 0.992,6.637c-1.558,2.105 -4.532,2.549 -6.637,0.991l-228.617,-169.196c-2.105,-1.558 -2.549,-4.531 -0.991,-6.636c1.558,-2.105 4.532,-2.549 6.637,-0.992l228.616,169.196Zm-1714.34,41.399c2.105,1.558 2.549,4.532 0.992,6.637c-1.558,2.105 -4.532,2.549 -6.637,0.991l-276.176,-204.394c-2.105,-1.558 -2.55,-4.532 -0.992,-6.637c1.558,-2.104 4.532,-2.549 6.637,-0.991l276.176,204.394Zm1714.34,145.766c2.105,1.558 2.55,4.531 0.992,6.636c-1.558,2.105 -4.532,2.549 -6.637,0.992l-289.983,-214.613c-2.105,-1.557 -2.549,-4.531 -0.991,-6.636c1.558,-2.105 4.531,-2.549 6.636,-0.991l289.983,214.612Zm-1675.72,69.978c2.105,1.558 2.549,4.531 0.992,6.636c-1.558,2.105 -4.532,2.549 -6.637,0.992l-314.792,-232.974c-2.105,-1.557 -2.55,-4.531 -0.992,-6.636c1.558,-2.105 4.532,-2.549 6.637,-0.991l314.792,232.973Zm1675.72,117.186c2.105,1.558 2.55,4.532 0.992,6.637c-1.558,2.105 -4.532,2.549 -6.637,0.991l-301.833,-223.382c-2.105,-1.558 -2.549,-4.531 -0.991,-6.636c1.558,-2.105 4.531,-2.55 6.636,-0.992l301.833,223.382Zm-1747.79,16.637c2.105,1.558 2.549,4.532 0.991,6.637c-1.558,2.105 -4.531,2.549 -6.636,0.991l-242.718,-179.632c-2.105,-1.558 -2.55,-4.531 -0.992,-6.636c1.558,-2.105 4.532,-2.55 6.637,-0.992l242.718,179.632Zm1635.67,87.545c2.104,1.558 2.549,4.532 0.991,6.637c-1.558,2.105 -4.532,2.549 -6.637,0.991l-100.308,-74.237c-2.105,-1.557 -2.549,-4.531 -0.991,-6.636c1.558,-2.105 4.531,-2.549 6.636,-0.991l100.309,74.236Zm-1770.27,0c2.105,1.558 2.55,4.532 0.992,6.637c-1.558,2.105 -4.532,2.549 -6.637,0.991l-108.112,-80.012c-2.105,-1.558 -2.55,-4.532 -0.992,-6.637c1.558,-2.105 4.532,-2.549 6.637,-0.991l108.112,80.012Z" style="fill:#ff5c5c;"/><path id="avatar-base-colour" d="M711.273,1300.23c-6.728,8.568 -15.996,15.423 -26.669,20.704c-20.021,9.907 -44.984,14.152 -66.36,14.076c-12.815,-0.045 -24.34,-1.643 -32.738,-4.505c-1.462,-0.498 -2.59,-1.676 -3.023,-3.158c-0.434,-1.482 -0.12,-3.082 0.842,-4.29c32.179,-40.385 43.574,-84.088 25.832,-121.278c-0.138,0.504 -0.28,1.005 -0.424,1.503c-0.934,3.231 -1.978,6.337 -3.087,9.315c-12.543,33.686 -42.13,52.861 -82.596,62.241c-0.544,0.126 -1.096,0.154 -1.633,0.089c-1.177,-0.14 -2.281,-0.719 -3.069,-1.657c-1.148,-1.365 -1.434,-3.259 -0.739,-4.902c20.869,-49.357 21.728,-86.092 4.72,-112.144c-0.095,0.438 -0.192,0.874 -0.29,1.309c-7.639,33.995 -21.377,58.835 -41.101,74.358c-16.378,12.89 -36.952,19.477 -61.88,19.376c-8.7,-0.035 -17.932,-0.885 -27.7,-2.566c-1.958,-0.337 -3.499,-1.859 -3.861,-3.813c-0.361,-1.954 0.533,-3.926 2.242,-4.942c-0,0 20.209,-12.036 35.775,-33.088c15.274,-20.658 26.026,-50.174 7.747,-85.622c-21.849,-42.372 -27.42,-82.247 -25.818,-115.61c-0.386,0.217 -0.77,0.435 -1.153,0.653c-33.39,19.005 -53.753,39.794 -61.056,62.72c-7.801,24.488 -0.361,51.098 21.127,79.955c1.247,1.674 1.253,3.966 0.016,5.646c-1.028,1.397 -2.714,2.099 -4.384,1.899c-0.34,-0.041 -0.679,-0.119 -1.013,-0.236c-42.977,-15.13 -69.455,-38.795 -80.502,-68.002c-16.405,-43.37 1.313,-99.821 52.254,-160.441c22.209,-26.428 22.405,-50.999 16.715,-75.032c-3.991,-16.86 -10.769,-33.472 -15.323,-50.258c-20.004,-73.72 -35.108,-130.98 -9.974,-181.239c16.398,-32.789 35.481,-47.108 56.162,-60.251c29.51,-18.754 62.403,-35.023 94.918,-104.574c16.988,-36.338 28.324,-84.911 42.049,-158.044c11.72,-62.448 48.742,-116.665 98.085,-160.525c73.506,-65.339 174.342,-107.661 258.401,-120.203c24.416,-3.643 47.885,-5.215 70.17,-5.241c116.99,-0.137 201.314,42.351 218.389,51.664c0.023,0.013 0.046,0.025 0.068,0.038c0.044,-0.007 0.088,-0.013 0.132,-0.018c0.56,-0.067 1.142,-0.035 1.721,0.11c0.534,0.135 1.025,0.355 1.46,0.643c0.042,0.028 0.084,0.057 0.125,0.086c13.327,-1.16 26.072,-1.734 38.266,-1.751c56.605,-0.079 101.343,11.826 137.38,32.618c51.878,29.931 85.822,78.35 110.973,136.631c24.821,57.516 41.095,124.671 58.003,192.795c12.491,50.327 50.307,82.45 87.757,111.509c39.094,30.335 77.734,57.573 90.146,96.615c18.378,57.805 -5.202,107.218 -23.997,152.678c-17.666,42.729 -31.126,81.831 5.537,121.526c72.392,78.38 96.319,133.443 90.907,178.055c-5.437,44.821 -40.535,79.733 -88.015,117.669c-1.018,0.813 -2.292,1.151 -3.524,1.005c-0.763,-0.091 -1.51,-0.368 -2.17,-0.832c-1.725,-1.215 -2.44,-3.424 -1.755,-5.419c27.717,-80.791 12.923,-143.338 -33.25,-192.468c0.048,0.45 0.094,0.901 0.138,1.354c3.213,32.969 -3.76,74.78 -36.973,121.66c-18.165,25.638 -23.415,46.73 -21.558,63.798c4.264,39.204 45.581,56.339 45.581,56.339c1.821,0.763 2.98,2.573 2.909,4.546c-0.07,1.973 -1.355,3.696 -3.225,4.327c-11.791,3.976 -23.464,5.828 -34.737,5.764c-23.572,-0.133 -45.394,-8.64 -62.891,-23.603c-0.333,0.039 -0.665,0.075 -0.997,0.107c-1.9,0.187 -3.79,0.267 -5.669,0.247c-25.24,-0.271 -48.353,-18.775 -60.715,-44.828c0.018,0.816 0.042,1.624 0.069,2.426c0.655,18.962 3.85,34.08 11.072,47.472c7.189,13.333 18.363,24.9 34.77,36.952c1.53,1.123 2.243,3.049 1.813,4.897c-0.429,1.848 -1.918,3.263 -3.785,3.597c-0,0 -7.602,1.338 -19.023,1.293c-23.718,-0.093 -63.905,-6.151 -86.664,-42.546c-6.654,-10.642 -11.837,-23.886 -14.637,-40.372c-0.529,-3.118 -0.973,-6.356 -1.326,-9.718c-0.342,0.328 -0.681,0.656 -1.017,0.985c-13.01,12.775 -20.209,26.802 -22.063,41.524c-3.357,26.657 10.611,55.211 37.615,82.227c1.196,1.197 1.664,2.94 1.229,4.575c-0.435,1.635 -1.709,2.914 -3.341,3.358c-7.786,2.115 -16.312,3.229 -25.188,3.18c-33.57,-0.186 -72.136,-17.012 -94.493,-59.276c-0.061,0.574 -0.127,1.146 -0.198,1.716c-2.66,21.258 -12.314,40.012 -27.963,52.082c1.868,5.463 3.665,10.559 5.339,15.149c3.037,8.328 6.673,16.393 10.079,23.944c32.431,23.998 78.099,39.769 127.044,51.421c75.157,17.891 158.024,25.984 213.751,38.128c98.418,21.446 134.197,73.199 152.415,98.358c31.735,43.828 42.494,80.62 33.076,110.111l-0.033,0.102c-0,-0 -41.918,122.227 -189.621,183.352c-49.124,20.33 -110.066,33.918 -185.203,33.85c-148.557,-0.134 -352.605,-53.655 -630.509,-214.018c-66.557,-38.405 -151.133,-51.005 -233.99,-50.948c-15.439,0.011 -30.817,0.461 -46.008,1.265c-145.834,7.723 -274.556,48.283 -274.556,48.283c-0.651,0.205 -1.328,0.265 -1.987,0.186c-0.817,-0.097 -1.605,-0.407 -2.282,-0.913c-1.223,-0.916 -1.931,-2.365 -1.9,-3.892c0.533,-27.032 0.399,-61.9 33.479,-107.386c18.165,-24.977 53.996,-76.905 152.409,-98.35c54.094,-11.788 133.755,-19.761 207.122,-36.58c47.759,-10.948 92.845,-25.62 126.195,-47.734c3.316,-7.594 7.252,-15.88 10.814,-24.556c-13.637,-2.927 -21.868,-8.342 -26.886,-15.226c-5.312,-7.288 -7.066,-16.422 -7.252,-26.774c-0.051,-2.838 0.016,-5.774 0.137,-8.79c-0.384,0.526 -0.778,1.045 -1.181,1.558Zm173.971,-224.523c-0.046,1.154 0.639,2.364 1.638,3.728c2.277,3.109 6.284,6.441 11.626,9.857c22.412,14.336 67.353,29.091 115.393,28.843c45.959,-0.238 91.757,-15.633 114.883,-30.057c5.545,-3.459 9.735,-6.802 12.13,-9.877c1.002,-1.285 1.731,-2.384 1.689,-3.443c-0.789,-19.732 -18.87,-61.531 -60.543,-78.198c-8.609,-3.443 -19.461,-3.06 -30.861,-1.961c-12.256,1.182 -25.114,3.272 -36.771,3.272c-11.657,0 -24.517,-2.09 -36.776,-3.272c-11.402,-1.099 -22.256,-1.482 -30.866,1.961c-41.698,16.677 -60.753,59.403 -61.542,79.147Z" style="fill:#fff;"/><g id="eyesshock"><g id="eise"><circle cx="1206.88" cy="671.275" r="32.5" style="fill:#ccf3f0;"/><clipPath id="_clip2"><circle cx="1206.88" cy="671.275" r="32.5"/></clipPath><g clip-path="url(#_clip2)"><path id="avatar-highlight" d="M1256.91,1344.17c61.242,3.593 136.735,-8.275 192.048,-52.919c17.018,-13.735 30.685,-28.947 42.446,-54.393c19.325,-41.813 -0.446,-69.437 -44.283,-86.805c-33.567,-13.299 -83.336,-24.234 -126.542,-32.21c-35.52,-6.558 -60.122,-30.029 -72.843,-45.398c18.097,10.975 41.287,18.698 65.925,24.564c42.889,10.209 90.176,14.832 121.977,21.762c30.778,6.707 50.4,18.808 63.436,30.533c4.361,4.027 8.02,7.971 11.181,11.587c3.778,4.491 6.687,8.578 9.055,11.849c16.743,23.122 23.049,42.347 18.104,57.913c-0.539,1.532 -24.272,67.861 -105.067,101.297c-41.808,17.302 -98.742,25.774 -175.437,12.22Z" style="fill:#fff;fill-opacity:0.53;"/></g><path d="M1206.88,632.525c21.386,-0 38.75,17.363 38.75,38.75c-0,21.387 -17.364,38.75 -38.75,38.75c-21.387,-0 -38.75,-17.363 -38.75,-38.75c-0,-21.387 17.363,-38.75 38.75,-38.75Zm-0,6.25c-17.938,-0 -32.5,14.563 -32.5,32.5c-0,17.937 14.562,32.5 32.5,32.5c17.937,-0 32.5,-14.563 32.5,-32.5c-0,-17.937 -14.563,-32.5 -32.5,-32.5Zm-0,19.713c7.057,0 12.787,5.73 12.787,12.787c-0,7.057 -5.73,12.787 -12.787,12.787c-7.058,-0 -12.787,-5.73 -12.787,-12.787c-0,-7.057 5.729,-12.787 12.787,-12.787Z" style="fill:#ff5c5c;"/></g><g id="eise1" serif:id="eise"><circle cx="806.877" cy="669.275" r="32.5" style="fill:#ccf3f0;"/><clipPath id="_clip3"><circle cx="806.877" cy="669.275" r="32.5"/></clipPath><g clip-path="url(#_clip3)"><path id="avatar-highlight1" serif:id="avatar-highlight" d="M856.913,1342.17c61.242,3.593 136.735,-8.275 192.048,-52.919c17.018,-13.735 30.685,-28.947 42.446,-54.393c19.325,-41.813 -0.446,-69.437 -44.283,-86.805c-33.567,-13.299 -83.336,-24.234 -126.542,-32.21c-35.52,-6.558 -60.122,-30.029 -72.843,-45.398c18.097,10.975 41.287,18.698 65.925,24.564c42.889,10.209 90.176,14.832 121.977,21.762c30.778,6.707 50.4,18.808 63.436,30.533c4.361,4.027 8.02,7.971 11.181,11.587c3.778,4.491 6.687,8.578 9.055,11.849c16.743,23.122 23.049,42.347 18.104,57.913c-0.539,1.532 -24.272,67.861 -105.067,101.297c-41.808,17.302 -98.742,25.774 -175.437,12.22Z" style="fill:#fff;fill-opacity:0.53;"/></g><path d="M806.877,630.525c21.386,-0 38.75,17.363 38.75,38.75c-0,21.387 -17.364,38.75 -38.75,38.75c-21.387,-0 -38.75,-17.363 -38.75,-38.75c-0,-21.387 17.363,-38.75 38.75,-38.75Zm-0,6.25c-17.938,-0 -32.5,14.563 -32.5,32.5c-0,17.937 14.562,32.5 32.5,32.5c17.937,-0 32.5,-14.563 32.5,-32.5c-0,-17.937 -14.563,-32.5 -32.5,-32.5Zm-0,19.713c7.057,0 12.787,5.73 12.787,12.787c-0,7.057 -5.73,12.787 -12.787,12.787c-7.058,-0 -12.787,-5.73 -12.787,-12.787c-0,-7.057 5.729,-12.787 12.787,-12.787Z" style="fill:#ff5c5c;"/></g></g><path id="avatar-face-shadow" d="M1052.35,1286.51c-14.317,0.629 -42.395,8.728 -70.168,6.236c-32.481,-2.916 -64.7,-18.606 -78.638,-26.633c-29.314,-16.88 -68.447,-37.037 -106.775,-62.539c-0.427,-0.423 -0.936,-0.768 -1.508,-1.006c-44.537,-29.815 -87.799,-66.893 -113.087,-114.49c-38.222,-71.938 -63.655,-258.35 -74.909,-356.18c20.995,-45.416 22.155,-83.754 25.201,-152.668c3.134,-2.191 6.217,-4.358 9.249,-6.501c4.294,74.182 23.971,374.835 66.551,488.365c23.506,62.674 130.707,154.085 232.526,204.112c31.204,15.332 73.592,20.932 111.558,21.304Zm0,-0c1.258,-0.055 2.411,-0.053 3.447,0.019c-1.145,-0.001 -2.294,-0.008 -3.447,-0.019Zm-123.992,-400.693c-4.518,-0.838 -12.209,-3.157 -17.722,-9.537c-5.701,-6.597 -8.729,-17.438 -4.405,-35.06c1.622,-6.609 5.965,-13.118 11.142,-20.264c5.658,-7.809 12.329,-16.261 18.194,-26.03c20.283,-33.78 26.19,-96.099 19.439,-139.529c-6.063,-38.999 -23.937,-61.133 -23.937,-61.133c-0.068,-0.085 -0.139,-0.168 -0.212,-0.247c13.586,0.749 35.564,13.349 41.53,84.137c8.366,99.275 -39.766,128.485 -51.221,165.552c-5.936,19.209 -0.426,32.925 7.192,42.111Zm134.066,406.856c-21.308,17.407 -81.615,19.687 -117.415,10.327c-64.152,-16.773 -101.029,-34.784 -120.6,-38.471c-16.154,-3.043 -55.72,77.168 -73,107.022c-4.805,8.301 -9.888,17.12 -15.013,26.399c0.033,-0.089 0.071,-0.176 0.098,-0.267c8.573,-29.252 50.873,-145.333 60.316,-182.921c36.81,24.053 73.82,43.348 101.999,59.575c56.603,32.595 116.744,29.572 163.615,18.336Zm231.918,-855.766c0.15,6.381 -3.97,3.663 -7.661,2.849c-5.101,-1.124 -10.293,-2.249 -10.458,-3.453c-5.193,-38.046 -24.353,-79.863 -40.543,-99.003c-46.116,-54.516 -103.853,-63.527 -120.316,-65.007c13.748,-5.389 34.598,-5.488 57.205,0.411c54.747,14.286 119.421,64.164 121.773,164.203Zm89.735,217.293c-7.837,-23.641 -18.046,-53.634 -23.681,-66.972c-3.592,-8.501 -60.036,-83.473 -74.683,-110.312c-4.426,-8.11 0.77,-2.891 6.007,-0.916c6.498,2.45 14.14,3.144 16.253,5.334c4.664,2.605 33.378,55.58 38.066,58.981c9.436,6.843 24.77,33.404 33.394,44.113c0.172,0.214 0.358,0.408 0.557,0.584c-0.27,18.674 0.524,42.546 4.087,69.188Z" style="fill:#ff5c5c;fill-opacity:0.15;"/><path id="fill" d="M714.888,1267.29c-10.419,53.061 -42.443,56.985 -131.253,60.004c36.758,-46.132 46.911,-96.503 20.114,-137.439c-1.246,8.118 -3.426,15.588 -5.95,22.366c-12,32.226 -40.508,50.3 -79.221,59.274c24.103,-57.005 21.833,-97.832 -2.277,-125.261c-13.46,77.347 -55.221,111.517 -127.539,99.07c0,0 84.004,-49.935 45.316,-124.963c-23.289,-45.164 -27.706,-87.428 -24.721,-121.727c-79.963,42.053 -95.422,93.727 -50.202,154.453c-103.373,-36.392 -108.705,-122.724 -26.191,-220.915c39.066,-46.488 13.759,-87.496 2.338,-129.585c-19.636,-72.363 -34.98,-128.54 -10.309,-177.874c39.732,-79.45 95.924,-46.84 151.135,-164.938c17.111,-36.603 28.589,-85.513 42.414,-159.178c28.821,-153.576 213.754,-256.207 352.522,-276.911c166.561,-24.851 288.623,47.601 288.623,47.601c251.874,-23.532 294.637,162.535 342.76,356.425c25.527,102.85 153.686,131.983 177.986,208.418c35.986,113.193 -93.807,193.286 -17.425,275.986c141.937,153.677 96.078,214.762 3.417,288.798c30.398,-88.605 10.738,-155.764 -44.666,-207.609c7.046,33.988 4.005,80.542 -33.779,133.872c-63.566,89.722 26.063,127.257 26.063,127.257c-35.48,11.965 -69.845,3.786 -94.62,-18.34c-35.097,5.661 -67.422,-28.258 -72.775,-69.342c-3.977,60.61 4.303,89.175 47.005,120.539c-0,0 -68.689,12.298 -100.828,-39.098c-6.369,-10.185 -11.302,-22.872 -13.982,-38.65c-0.987,-5.815 -1.668,-12.049 -2.002,-18.733c-48.051,38.767 -39.896,90.804 7.177,137.899c-40.337,10.956 -101.279,-6.452 -123.669,-76.328c4.527,31.372 -5.821,61.234 -28.544,76.83c-11.503,-34.025 -25.254,-80.5 -29.985,-108.805c40.176,-30.115 78.697,-70.875 110.644,-126.533c19.871,-34.62 36.07,-95.123 48.884,-161.018c6.214,4.642 33.772,-206.966 32.714,-232.017c-2.008,-47.551 -13.286,-88.746 -12.671,-117.573c-2.657,-2.649 -5.304,-5.369 -7.933,-8.151c-8.547,-9.045 -16.9,-18.744 -24.771,-28.758c-13.448,-25.18 -32.628,-46.737 -29.924,-43.83c-0.48,-0.831 -0.954,-1.661 -1.421,-2.489c-12.943,-22.911 -21.253,-44.839 -21.655,-61.951c-3.454,-146.904 -137.942,-188.362 -186.105,-168.659c0,0 -214.739,-108.661 -305.196,91.629c-21.836,48.35 -25.843,66.159 -46.622,99.18c-6.423,10.206 -14.599,20.386 -24.566,30.811c-16.464,17.221 -37.817,35.112 -64.236,54.908c-8.978,4.976 -18.267,11.472 -27.381,19.954c-5.539,3.943 -9.255,8.965 -15.151,13.076c-3.117,70.176 -5.901,107.493 -27.43,153.415c-3.619,7.719 8.738,45.999 13.859,91.345c5.945,52.65 15.952,91.95 15.521,107.56c12.374,64.857 27.839,125.722 46.205,160.29c25.706,48.383 69.985,86.636 115.309,117.123c-5.483,32.655 -26.514,102.201 -38.858,136.748c-11.274,0.391 -24.53,-4.436 -31.05,-19.069c-6.112,-13.719 -7.32,-35.041 -5.098,-59.087c1.346,-6.854 2.332,-14.527 3.032,-23.124c-1.314,7.874 -2.339,15.631 -3.032,23.124Zm297.544,-97.237c-37.38,-0 -86.197,-12.16 -112.14,-41.052c-14.332,-15.961 -20.428,-35.419 -22.09,-68.538c-1.538,-30.634 12.164,-80.341 60.981,-107.875c32.619,-18.398 55.017,-3.015 79.766,-3.015c23.246,0 44.948,-17.082 75.732,5.861c44.66,33.283 57.519,71.549 55.981,102.183c-1.662,33.119 -11.758,55.423 -26.09,71.384c-25.942,28.892 -74.76,41.052 -112.14,41.052Zm-131.352,-94.511c-0.643,16.085 62.853,47.123 132.843,46.761c66.912,-0.345 133.458,-32.332 132.843,-47.709c-0.825,-20.636 -19.577,-64.47 -63.159,-81.9c-18.311,-7.324 -46.118,1.013 -69.179,1.013c-23.061,-0 -50.878,-8.337 -69.189,-1.013c-43.582,17.43 -63.334,62.213 -64.159,82.848Zm16.255,-376.134c-0.216,0.279 -0.316,0.621 -0.483,0.911c-0.928,1.607 -4.822,-21.054 -14.318,-30.288c-15.288,-14.865 -39.235,-38.124 -57.164,-40.465c-3.597,-0.469 -38.372,-10.467 -90.702,21.392c-49.395,30.074 -71.37,-1.749 -71.37,-1.749c0,0 65.636,-88.874 148.187,-71.831c13.687,2.826 41.486,16.923 59.333,32.555c9.348,8.188 22.414,25.405 27.61,39.091c5.716,15.056 4.238,43.512 -1.093,50.384Zm446.012,-50.589c0.752,0.899 -4.864,6.39 -4.864,6.39c0,0 -22.529,18.823 -71.924,-11.251c-52.33,-31.859 -82.106,-15.861 -90.702,-12.392c-27.182,10.971 -73.421,53.51 -60.943,67.415c-1.306,0.964 -2.358,0.829 -3.212,-0.001c-2.522,-2.456 -7.457,-18.288 -7.89,-22.438c-2.375,-22.734 9.414,-44.752 25.597,-61.609c18.847,-19.632 48.645,-35.729 62.332,-38.555c82.417,-17.015 142.636,61.717 151.606,72.441Zm381.41,891.658c6.951,7.951 12.531,14.995 17.448,20.276c38.711,41.577 39.439,102.882 32.4,105.884c-0,0 -165.706,481.163 -998.476,0.62c-199.261,-114.982 -558.351,-1.816 -558.351,-1.816c0.521,-26.348 0.33,-60.353 32.574,-104.688c17.826,-24.512 53,-75.46 149.581,-96.506c90.179,-19.651 251.393,-28.709 336.103,-85.78c-4.858,11.257 -8.219,20.931 -6.809,28.012c13.245,66.502 157.959,185.067 266.473,182.198c108.514,2.869 250.767,-112.28 264.012,-178.782c1.763,-8.857 -3.936,-21.769 -10.695,-36.762c82.355,61.864 250.688,70.866 343.606,91.114c55.251,12.04 89.481,34.627 112.525,55.908c7.649,7.062 14.065,13.981 19.609,20.322Zm-422.21,-1068.65c-3.543,-0.641 -6.938,-1.13 -10.152,-1.499l-0.592,-0.066c-13.99,-1.55 -24.464,-0.812 -28.626,-0.347c-23.283,2.598 -48.573,11.291 -72,21.596c-39.96,17.578 -74.5,39.848 -84.411,44.563c-3.199,1.522 -5.737,1.991 -7.803,1.332c-3.108,-0.993 -4.724,-4.253 -5.916,-7.856c-0.56,-1.694 -0.99,-3.493 -1.314,-5.311c-1.152,-6.472 -0.951,-13.178 -0.462,-16.246c0.061,-0.108 0.385,-0.667 0.661,-1.014c0.752,-0.946 1.815,-1.971 3.133,-3.086c4.62,-3.905 12.069,-8.596 21.342,-13.655c36.927,-20.146 102.307,-45.71 137.515,-48.497c11.388,-0.902 21.565,-0.551 30.683,0.794l0.119,0.018c3.367,0.5 6.59,1.136 9.675,1.895c1.24,8.361 4.071,17.611 8.148,27.379Zm-546.756,15.543c-3.794,-0.595 -7.572,-1.102 -11.319,-1.506c8.182,-8.911 15.025,-17.668 20.554,-26.453l0.737,-1.177c3.327,0.484 6.717,1.024 10.152,1.613c32.214,5.525 68.387,15.404 93.13,24.723c9.886,3.723 17.914,7.334 23.031,10.561c1.46,0.921 2.655,1.789 3.531,2.621c0.322,0.306 0.72,0.814 0.796,0.912c1.165,3.804 2.691,13.584 1.232,21.596c-0.171,0.94 -0.372,1.862 -0.624,2.738c-0.748,2.604 -1.944,4.804 -4.144,5.862c-1.955,0.94 -4.533,0.828 -7.912,-0.235c-12.327,-3.879 -61.841,-27.118 -112.458,-38.112c-5.571,-1.21 -11.156,-2.271 -16.706,-3.143Z" style="fill:#ccf3f0;"/><path id="outline" d="M1255.12,1368.79c32.432,23.998 78.1,39.769 127.044,51.421c75.158,17.891 158.024,25.984 213.752,38.128c98.418,21.446 134.197,73.199 152.414,98.358c31.735,43.828 42.495,80.62 33.077,110.111l-0.034,0.102c0,-0 -41.917,122.227 -189.621,183.352c-146.248,60.524 -397.25,61.302 -815.712,-180.168c-78.957,-45.561 -183.275,-54.805 -279.998,-49.683c-145.833,7.723 -274.555,48.283 -274.555,48.283c-1.457,0.459 -3.046,0.188 -4.27,-0.727c-1.223,-0.916 -1.93,-2.365 -1.9,-3.892c0.534,-27.032 0.4,-61.9 33.48,-107.386c18.165,-24.977 53.996,-76.905 152.408,-98.35c54.095,-11.788 133.756,-19.761 207.122,-36.58c47.76,-10.948 92.846,-25.62 126.195,-47.734c3.317,-7.594 7.253,-15.88 10.814,-24.556c-13.636,-2.927 -21.868,-8.342 -26.885,-15.226c-5.312,-7.288 -7.066,-16.422 -7.252,-26.774c-0.051,-2.838 0.015,-5.774 0.137,-8.79c-6.805,9.299 -16.538,16.664 -27.85,22.262c-32.023,15.846 -76.692,17.206 -99.099,9.571c-1.461,-0.498 -2.589,-1.676 -3.023,-3.158c-0.434,-1.482 -0.119,-3.082 0.843,-4.29c32.179,-40.385 43.574,-84.088 25.832,-121.278c-1.038,3.773 -2.231,7.381 -3.511,10.818c-12.543,33.686 -42.13,52.861 -82.596,62.241c-1.738,0.403 -3.554,-0.203 -4.703,-1.568c-1.148,-1.365 -1.433,-3.259 -0.739,-4.902c20.87,-49.357 21.729,-86.092 4.721,-112.144c-7.579,34.668 -21.415,59.946 -41.391,75.667c-22.096,17.389 -51.827,23.307 -89.58,16.81c-1.959,-0.337 -3.499,-1.859 -3.861,-3.813c-0.361,-1.954 0.533,-3.926 2.241,-4.942c0,0 20.209,-12.036 35.775,-33.088c15.275,-20.658 26.027,-50.174 7.748,-85.622c-21.849,-42.372 -27.42,-82.247 -25.818,-115.61c-34.075,19.182 -54.823,40.184 -62.21,63.373c-7.8,24.488 -0.361,51.098 21.128,79.955c1.247,1.674 1.253,3.966 0.015,5.646c-1.237,1.681 -3.427,2.356 -5.396,1.663c-42.977,-15.13 -69.456,-38.795 -80.503,-68.002c-16.404,-43.37 1.314,-99.821 52.255,-160.441c22.209,-26.428 22.405,-50.999 16.715,-75.032c-3.992,-16.86 -10.769,-33.472 -15.324,-50.258c-20.004,-73.72 -35.107,-130.98 -9.973,-181.239c16.397,-32.789 35.481,-47.108 56.161,-60.251c29.511,-18.754 62.404,-35.023 94.919,-104.574c16.988,-36.338 28.324,-84.911 42.049,-158.044c11.719,-62.448 48.741,-116.665 98.085,-160.525c73.506,-65.339 174.341,-107.661 258.401,-120.203c152.768,-22.793 268.493,35.468 288.627,46.461c0.6,-0.09 1.228,-0.065 1.852,0.092c0.587,0.148 1.12,0.399 1.586,0.729c75.192,-6.547 131.845,5.596 175.646,30.867c51.877,29.931 85.821,78.35 110.973,136.631c24.821,57.516 41.095,124.671 58.003,192.795c12.491,50.327 50.306,82.45 87.757,111.509c39.093,30.335 77.734,57.573 90.146,96.615c18.377,57.805 -5.202,107.218 -23.998,152.678c-17.666,42.729 -31.126,81.831 5.537,121.526c72.393,78.38 96.319,133.443 90.907,178.055c-5.437,44.821 -40.534,79.733 -88.014,117.669c-1.649,1.317 -3.969,1.387 -5.694,0.173c-1.725,-1.215 -2.441,-3.424 -1.756,-5.419c27.718,-80.791 12.923,-143.338 -33.25,-192.468c3.538,33.175 -3.165,75.49 -36.835,123.014c-18.164,25.638 -23.414,46.73 -21.558,63.798c4.264,39.204 45.582,56.339 45.582,56.339c1.821,0.763 2.979,2.573 2.909,4.546c-0.07,1.973 -1.355,3.696 -3.226,4.327c-36.446,12.291 -71.763,4.281 -97.627,-17.839c-27.781,3.263 -53.938,-16.142 -67.382,-44.474c0.461,20.107 3.615,35.94 11.141,49.898c7.189,13.333 18.364,24.9 34.771,36.952c1.529,1.123 2.242,3.049 1.813,4.897c-0.429,1.848 -1.918,3.263 -3.786,3.597c0,0 -71.969,12.667 -105.686,-41.253c-6.655,-10.642 -11.838,-23.886 -14.637,-40.372c-0.53,-3.118 -0.974,-6.356 -1.326,-9.718c-13.653,13.037 -21.178,27.408 -23.08,42.509c-3.357,26.657 10.611,55.211 37.614,82.227c1.196,1.197 1.665,2.94 1.229,4.575c-0.435,1.635 -1.708,2.914 -3.341,3.358c-37.233,10.113 -91.413,-2.658 -119.68,-56.096c-2.344,21.963 -12.093,41.404 -28.162,53.798c1.869,5.463 3.666,10.559 5.34,15.149c3.037,8.328 6.673,16.393 10.078,23.944Zm-644.14,-181.282c25.589,40.617 17.168,89.987 -16.997,135.822c22.084,4.869 58.467,2.381 85.294,-10.894c18.892,-9.348 33.069,-24.169 32.875,-46.201c-0.007,-0.854 0.212,-1.659 0.601,-2.355c2.784,-23.52 5.232,-36.237 -6.851,-58.791c-28.508,-53.215 -79.818,-120.218 -100.491,-179.395c-14.436,-41.327 -14.045,-78.944 16.729,-106.33c0.478,-0.425 1.018,-0.736 1.586,-0.935c-11.182,-60.828 -19.683,-123.823 -25.325,-171.113c-9.006,16.642 -20.765,34.668 -36.239,55.693c-60.889,82.732 -82.345,155.702 -29.494,218.183c41.934,49.574 76.096,99.749 79.032,147c0.42,6.769 0.107,13.213 -0.72,19.316Zm940.762,-376.385c17.543,-23.544 40.49,-62.151 48.654,-100.514c6.807,-31.984 3.291,-63.874 -23.693,-85.991c-170.025,-139.365 -180.128,-223.074 -196.099,-297.707c-10.37,-48.455 -23.225,-93.017 -86.381,-147.143c-21.426,-18.362 -49.905,-25.591 -76.312,-27.804c-33.554,-2.812 -63.889,2.535 -73.049,4.39l-26.325,104.704c14.729,-3.519 34.335,-3.012 55.311,2.462c57.807,15.085 126.381,67.535 128.865,173.162c0.493,20.974 13.441,49.322 32.019,77.712c14.734,22.517 33.064,45.03 51.909,63.877c0.266,0.214 0.51,0.457 0.725,0.723c17.076,16.98 34.541,30.916 50.105,39.087c101.161,53.103 122.212,141.262 114.271,193.042Zm-26.876,420.14c20.951,18.711 49.126,26.89 78.835,20.456c-11.127,-6.902 -27.969,-20.125 -36.13,-40.517c-8.481,-21.19 -7.949,-50.276 18.82,-88.06c36.749,-51.869 39.858,-97.109 33.005,-130.166c-7.342,-35.41 -25.989,-56.682 -25.989,-56.682c-0.055,-0.062 -0.108,-0.126 -0.159,-0.191l-0.005,-0.005c-13.968,-17.629 -29.251,-28.255 -41.025,-38.286c-9.744,-8.301 -17.173,-16.333 -20.387,-26.804c-3.202,-10.437 -2.322,-23.46 5.394,-41.938l0.009,-0.024c17.356,-42.235 6.787,-144.316 -104.173,-202.563c-13.932,-7.314 -29.369,-19.071 -44.745,-33.466c0.078,27.83 2.706,65.211 12.635,105.39c10.059,40.703 27.616,84.296 57.676,123.692c40.876,53.569 61.142,94.571 66.875,132.745c5.766,38.394 -3.089,74.04 -21.017,116.822c-29.049,69.318 -14.303,128.622 20.381,159.597Zm-140.999,-41.784c0.33,6.404 0.987,12.387 1.937,17.977c2.559,15.072 7.243,27.2 13.326,36.929c22.646,36.215 64.425,39.044 84.547,38.08c-12.676,-10.516 -21.746,-21.035 -28.056,-32.738c-11.582,-21.478 -13.887,-47.063 -11.425,-84.579c0.16,-2.436 2.143,-4.353 4.583,-4.431c2.44,-0.078 4.541,1.708 4.857,4.129c4.466,34.281 28.61,63.686 57.087,65.727c-31.435,-34.659 -43.741,-93.966 -14.99,-162.574c17.157,-40.942 25.903,-75.004 20.385,-111.746c-5.551,-36.964 -25.455,-76.526 -65.035,-128.398c-25.064,-32.847 -41.699,-68.521 -52.61,-103.154c-4.027,37.084 -9.531,82.26 -16.607,128.712c0.466,0.123 0.921,0.321 1.349,0.595c25.825,16.585 37.589,46.98 40.974,80.366c4.925,48.564 -7.747,103.307 -17.487,127.936c-18.159,54.32 -24.392,95.525 -22.856,126.76c0.01,0.136 0.017,0.273 0.021,0.409Zm-759.208,-847.97c-4.142,96.837 -30.719,129.868 -87.403,185.647c-69.666,68.554 -96.452,139.031 -96.149,189.203c0.153,25.226 7.067,45.189 19.067,56.418c-4.987,-23.022 -0.048,-47.379 16.7,-73.654c19.192,-30.108 54.198,-62.936 107.812,-99.33c13.805,-9.37 26.825,-18.282 39.069,-26.809c0.162,-0.13 0.332,-0.249 0.51,-0.356c5.826,-4.059 11.475,-8.031 16.949,-11.924c10.336,-6.487 18.236,-12.708 24.994,-18.154c26.338,-19.609 47.691,-37.31 64.217,-54.333c1.301,-1.44 19.211,-21.639 25.606,-31.801c20.656,-32.824 24.607,-50.543 46.314,-98.605c83.863,-185.692 272.229,-111.672 306.32,-96.408l26.657,-106.021c-17.352,-6.078 -87.558,-30.404 -155.973,-50.358c-71.675,-20.905 -154.237,2.473 -221.928,48.815c-67.714,46.359 -120.661,115.788 -132.762,187.67Zm113.751,151.976c-4.353,4.628 -9.222,9.645 -15.415,15.394c-8.402,7.8 -17.402,14.832 -24.022,20.194c-0,-0 0.099,-0.038 0.078,-0.021c-4.683,3.623 -19.571,15.29 -28.173,21.76c-7.724,5.809 -15.241,11.208 -23.442,17.06c-0.494,0.446 -2.74,2.264 -3.456,2.459c-1.12,0.796 -2.247,1.594 -3.382,2.396c-3.032,2.143 -6.115,4.31 -9.248,6.501c-3.047,68.914 -4.207,107.252 -25.201,152.668c11.253,97.83 36.687,284.242 74.909,356.18c25.288,47.597 68.549,84.675 113.087,114.49c0.571,0.238 1.081,0.583 1.507,1.006c38.329,25.502 77.461,45.659 106.776,62.539c2.939,1.693 5.889,3.285 8.846,4.781c46.224,23.382 94.25,23.202 134.352,15.523c26.698,-5.112 49.884,-13.549 66.687,-20.57c68.704,-28.707 143.352,-79.863 198.318,-175.627c25.974,-45.253 45.499,-135.095 59.484,-223.007c9.881,-62.116 16.947,-123.291 21.426,-167.328c-3.868,-15.791 -6.636,-31.15 -8.58,-45.685c-3.563,-26.642 -4.358,-50.514 -4.088,-69.188c-0.198,-0.176 -0.385,-0.37 -0.557,-0.584c-6.042,-7.504 -15.069,-17.202 -18.965,-21.496c-1.717,-1.893 -28.76,-36.004 -33.56,-43.34c-3.293,-5.032 -13.394,-23.919 -15.647,-28.494c-1.49,-3.025 -5.067,-10.323 -5.067,-10.323c0,0 -2.647,-0.494 -4.009,-0.741c-3.356,-0.607 -6.572,-1.07 -9.617,-1.419l-0.561,-0.064c-13.09,-1.45 -22.889,-0.782 -26.784,-0.347c-22.504,2.511 -46.926,10.982 -69.568,20.942c-39.857,17.533 -74.301,39.757 -84.187,44.46c-5.668,2.698 -10.257,2.914 -13.917,1.745c-5.486,-1.752 -9.191,-6.82 -11.294,-13.177c-0.682,-2.065 -1.212,-4.254 -1.606,-6.467c-1.349,-7.576 -1.06,-15.427 -0.488,-19.018c0.158,-0.995 0.496,-1.954 0.997,-2.828l1.371,-2.061c1.032,-1.299 2.466,-2.733 4.275,-4.263c4.927,-4.166 12.843,-9.212 22.732,-14.608c37.806,-20.625 104.801,-46.635 140.848,-49.489c12.084,-0.956 22.882,-0.569 32.557,0.858l0.128,0.019c2.485,0.37 4.897,0.808 7.239,1.31c-2.872,-99.185 -67.227,-148.698 -121.741,-162.923c-22.606,-5.899 -43.456,-5.8 -57.204,-0.411c-0.197,0.078 -0.393,0.156 -0.587,0.235c-1.297,0.531 -2.73,0.453 -3.938,-0.158l-0.006,-0.003c-1.224,-0.619 -210.471,-106.06 -298.724,89.351c-19.44,43.044 -24.857,62.014 -40.335,88.832c2.202,0.342 4.427,0.706 6.671,1.091c32.743,5.616 69.508,15.665 94.658,25.137c10.543,3.971 19.082,7.87 24.54,11.311c2.004,1.265 3.623,2.486 4.825,3.629l1.644,1.851c0.617,0.796 1.085,1.698 1.38,2.662c1.377,4.497 3.187,16.058 1.463,25.529c-0.222,1.217 -0.487,2.411 -0.813,3.546c-1.457,5.072 -4.257,9.01 -8.542,11.071c-3.463,1.666 -8.037,2.088 -14.025,0.204c-12.249,-3.854 -61.431,-26.993 -111.725,-37.917c-5.413,-1.176 -10.838,-2.208 -16.23,-3.054c-3.661,-0.575 -8.238,-1.1 -10.921,-1.454c-1.723,-0.227 -2.983,-0.758 -5.173,-0.669Zm552.587,173.048c-14.498,35.852 -36.368,55.265 -75.82,58.771c-26.221,2.33 -62.105,-7.819 -85.46,-16.55c-8.602,-3.216 -16.018,-5.779 -19.598,-8.377c-1.688,-1.225 -1.956,-4.958 -1.881,-7.212c0.089,-2.666 0.845,-4.902 1.148,-5.932c12.243,-41.566 66.132,-75.453 103.051,-77.476c5.371,-0.294 16.275,0.209 27.954,4.222c19.5,6.701 33.95,18.743 43.751,26.102c2.913,2.186 6.992,5.174 7.601,5.62c13.664,10.007 20.557,11.06 23.577,11.6c3.855,0.689 11.124,1.388 22.183,-5.153c1.688,-0.998 3.093,-1.973 3.097,-1.976c1.78,-1.368 2.796,-1.584 3.066,-1.086c0.27,0.497 -0.719,2.923 -1.447,4.072c-0.981,1.547 -1.902,2.526 -4.438,5.211c-13.281,14.059 -27.591,12.69 -27.841,12.684c-6.64,-0.158 -12.712,-1.89 -18.943,-4.52Zm-176.607,29.759c16.635,6.347 67.004,22.615 99.632,18.298c37.696,-4.987 55.107,-24.569 65.957,-52.911l0.173,-0.454c-3.451,-1.958 -9.912,-5.697 -15.758,-9.303c-8.329,-5.137 -15.126,-8.685 -22.755,-12.818c-8.758,-4.745 -21.498,-7.553 -29.797,-7.734c-15.755,-0.344 -29.931,3.233 -43.733,10.315c-14.993,7.693 -39.441,26.044 -46.223,35.842c-3.028,4.375 -5.719,9.232 -7.673,14.815c-0.192,0.55 -0.783,3.583 0.177,3.95Zm190.594,-65.073c-0.26,0.224 -0.444,0.435 -0.774,0.515c-0.292,0.071 -0.746,0.052 -1.571,-0.404c-0.746,-0.414 -0.745,-0.264 -4.962,-4.115c-32.402,-29.59 -75.821,-40.763 -112.426,-31.433c-33.019,8.415 -54.918,30.792 -67.035,45.379c-0.55,0.662 -0.951,0.867 -1.304,0.901c-0.255,0.025 -0.506,-0.037 -0.79,-0.19c-0.23,-0.125 -0.504,-0.334 -0.9,-0.569c-0.054,-0.031 -0.148,-0.089 -0.256,-0.184l-0.252,-0.277l-0.206,-0.349l-0.157,-0.456c-0.138,-0.57 -0.173,-1.541 0.524,-3.082c0.155,-0.342 3.411,-4.454 3.714,-4.833c37.326,-46.568 76.949,-50.585 93.477,-50.867c33.452,-0.572 67.684,16.491 92.236,44.714c0.404,0.465 1.161,2.085 1.275,3.275c0.044,0.457 0.004,0.869 -0.102,1.2l-0.194,0.425l-0.297,0.35Zm-155.327,488.084c4.2,-0 7.61,3.409 7.61,7.609c0,4.2 -3.41,7.61 -7.61,7.61c-4.2,0 -7.61,-3.41 -7.61,-7.61c0,-4.2 3.41,-7.609 7.61,-7.609Zm-206.637,-243.12c-2.493,-0.801 -3.867,-3.475 -3.067,-5.968c0.8,-2.494 3.475,-3.868 5.968,-3.067c11.613,3.728 22.576,10.575 33.119,16.546c9.496,5.378 18.564,10.12 27.591,10.158c9.676,0.041 18.082,-5.294 27.288,-11.072c10.461,-6.566 21.758,-13.827 35.95,-16.891c2.56,-0.553 5.087,1.076 5.639,3.636c0.553,2.56 -1.077,5.087 -3.636,5.639c-15.778,3.407 -27.586,12.638 -38.955,19.366c-8.626,5.105 -17.052,8.851 -26.326,8.812c-8.511,-0.036 -17.145,-3.347 -25.972,-7.965c-11.92,-6.237 -24.283,-14.92 -37.599,-19.194Zm-227.079,-209.65c-6.231,2.63 -12.303,4.362 -18.943,4.52c-0.25,0.006 -14.56,1.375 -27.841,-12.684c-2.536,-2.685 -3.457,-3.664 -4.438,-5.211c-0.728,-1.149 -1.717,-3.575 -1.447,-4.072c0.27,-0.498 1.286,-0.282 3.066,1.086c0.004,0.003 1.409,0.978 3.097,1.976c11.059,6.541 18.328,5.842 22.183,5.153c3.02,-0.54 9.913,-1.593 23.577,-11.6c0.609,-0.446 4.688,-3.434 7.601,-5.62c9.801,-7.359 24.251,-19.401 43.751,-26.102c11.679,-4.013 22.583,-4.516 27.954,-4.222c36.919,2.023 90.808,35.91 103.05,77.476c0.304,1.03 1.06,3.266 1.149,5.932c0.075,2.254 -0.193,5.987 -1.881,7.212c-3.58,2.598 -10.996,5.161 -19.598,8.377c-23.355,8.731 -59.239,18.88 -85.46,16.55c-39.452,-3.506 -61.322,-22.919 -75.82,-58.771Zm176.607,29.759c0.96,-0.367 0.369,-3.4 0.177,-3.95c-1.954,-5.583 -4.645,-10.44 -7.673,-14.815c-6.782,-9.798 -31.23,-28.149 -46.223,-35.842c-13.802,-7.082 -27.978,-10.659 -43.733,-10.315c-8.299,0.181 -21.039,2.989 -29.797,7.734c-7.629,4.133 -14.426,7.681 -22.755,12.818c-5.846,3.606 -12.307,7.345 -15.758,9.303l0.173,0.454c10.85,28.342 28.261,47.924 65.957,52.911c32.628,4.317 82.997,-11.951 99.632,-18.298Zm-192.597,-65.073l-0.296,-0.35l-0.194,-0.425c-0.106,-0.331 -0.146,-0.743 -0.102,-1.2c0.114,-1.19 0.871,-2.81 1.274,-3.275c24.552,-28.223 58.785,-45.286 92.236,-44.714c16.529,0.282 56.151,4.299 93.478,50.867c0.303,0.379 3.559,4.491 3.713,4.833c0.697,1.541 0.662,2.512 0.525,3.082l-0.158,0.456l-0.206,0.349l-0.252,0.277c-0.108,0.095 -0.202,0.153 -0.255,0.184c-0.396,0.235 -0.671,0.444 -0.901,0.569c-0.284,0.153 -0.535,0.215 -0.79,0.19c-0.353,-0.034 -0.754,-0.239 -1.304,-0.901c-12.117,-14.587 -34.016,-36.964 -67.035,-45.379c-36.604,-9.33 -80.024,1.843 -112.426,31.433c-4.216,3.851 -4.216,3.701 -4.962,4.115c-0.825,0.456 -1.278,0.475 -1.571,0.404c-0.33,-0.08 -0.514,-0.291 -0.774,-0.515Zm229.79,-37.204c0.073,0.079 0.144,0.162 0.212,0.247c-0,-0 17.874,22.134 23.936,61.133c6.752,43.43 0.844,105.749 -19.438,139.529c-5.865,9.769 -12.537,18.221 -18.194,26.03c-5.177,7.146 -9.52,13.655 -11.142,20.264c-4.324,17.622 -1.296,28.463 4.405,35.06c5.513,6.38 13.203,8.699 17.722,9.537c2.262,0.419 3.73,0.467 3.73,0.467c2.617,0.091 4.667,2.29 4.576,4.907c-0.092,2.618 -2.291,4.668 -4.908,4.577c0,-0 -17.373,-0.639 -28.3,-13.283c-7.099,-8.216 -11.825,-21.584 -6.441,-43.527c1.521,-6.199 4.94,-12.397 9.382,-18.906c6.083,-8.914 14.139,-18.526 21.034,-30.01c19.354,-32.234 24.64,-91.747 18.198,-133.187c-5.611,-36.095 -21.964,-56.656 -21.964,-56.656c-1.638,-2.043 -1.309,-5.031 0.734,-6.669c1.958,-1.57 4.784,-1.333 6.458,0.487Zm156.72,301.688c-2.583,0.434 -5.032,-1.31 -5.466,-3.893c-0.434,-2.582 1.31,-5.031 3.892,-5.465c14.032,-2.36 22.199,-9.291 25.349,-18.298c4.904,-14.018 -1.828,-32.168 -15.205,-44.176c-1.949,-1.749 -2.111,-4.752 -0.362,-6.7c1.749,-1.949 4.752,-2.111 6.7,-0.362c16.384,14.706 23.83,37.203 17.825,54.371c-4.122,11.784 -14.376,21.436 -32.733,24.523Zm-74.024,278.522c-38.44,-0 -88.562,-12.724 -115.24,-42.435c-14.884,-16.577 -21.425,-36.717 -23.152,-71.113c-1.592,-31.718 12.553,-83.205 63.096,-111.713c20.655,-11.65 37.416,-10.537 53.17,-7.725c9.706,1.732 18.988,4.173 28.643,4.173c9.04,-0 17.831,-2.71 27.052,-4.471c15.201,-2.903 31.434,-3.551 51.17,11.157c46.161,34.402 59.242,74.069 57.653,105.733c-1.723,34.332 -12.295,57.414 -27.152,73.959c-26.678,29.711 -76.8,42.435 -115.24,42.435Zm-127.188,-98.511c-0.046,1.154 0.639,2.364 1.638,3.728c2.277,3.109 6.284,6.441 11.626,9.857c22.412,14.336 67.353,29.091 115.393,28.843c45.959,-0.238 91.757,-15.633 114.883,-30.057c5.545,-3.459 9.735,-6.802 12.13,-9.877c1.002,-1.285 1.731,-2.384 1.689,-3.443c-0.789,-19.732 -18.87,-61.531 -60.543,-78.198c-8.609,-3.443 -19.461,-3.06 -30.861,-1.961c-12.256,1.182 -25.114,3.272 -36.771,3.272c-11.657,0 -24.517,-2.09 -36.776,-3.272c-11.402,-1.099 -22.256,-1.482 -30.866,1.961c-41.698,16.677 -60.753,59.403 -61.542,79.147Zm-2.939,-23.026c8.793,-22.687 28.575,-50.735 61.387,-63.858c7.838,-3.135 17.294,-3.683 27.411,-3.098c14.102,0.814 29.564,3.813 43.325,3.813c13.761,0 29.22,-2.999 43.319,-3.813c10.115,-0.585 19.569,-0.037 27.408,3.098c34.001,13.599 53.44,42.66 61.449,65.465c0.466,-29.047 -12.757,-64.471 -54.413,-95.516c-17.206,-12.822 -31.374,-12.184 -44.626,-9.653c-9.748,1.862 -19.059,4.619 -28.616,4.619c-10.144,-0 -19.909,-2.482 -30.107,-4.302c-14.102,-2.517 -29.124,-3.649 -47.612,6.779c-43.252,24.396 -57.964,66.815 -58.925,96.466Zm259.174,36.601c-2.342,1.92 -5.116,3.89 -8.285,5.867c-24.011,14.976 -71.532,31.073 -119.25,31.319c-49.945,0.258 -96.625,-15.252 -119.926,-30.155c-3.102,-1.984 -5.806,-3.972 -8.08,-5.918c3.239,14.963 8.71,26.082 17.455,35.821c25.206,28.072 72.719,39.668 109.039,39.668c36.32,0 83.833,-11.596 109.04,-39.668c8.604,-9.583 15.582,-21.552 20.007,-36.934Zm486.89,-99.714c52.735,49.947 73.382,113.672 49.612,196.4c39.013,-32.286 67.582,-62.753 72.277,-101.458c5.199,-42.859 -18.912,-95.176 -88.458,-170.474c-39.72,-43.005 -26.474,-85.299 -7.335,-131.591c18.009,-43.559 41.333,-90.789 23.724,-146.177c-11.889,-37.393 -49.477,-62.938 -86.92,-91.992c-39.086,-30.329 -78.114,-64.197 -91.15,-116.721c-16.778,-67.598 -32.877,-134.249 -57.506,-191.321c-24.299,-56.306 -56.883,-103.255 -107.002,-132.172c-42.42,-24.474 -97.332,-35.979 -170.159,-29.625l-18.045,71.767c12.908,-2.324 40.822,-6.257 71.291,-3.704c28.303,2.372 58.732,10.376 81.695,30.055c65.404,56.053 78.747,102.184 89.485,152.364c15.691,73.32 25.799,155.437 192.836,292.352c29.963,24.561 34.518,59.791 26.959,95.306c-10.85,50.981 -46.808,102.39 -64.013,120.906c-6.267,15.264 -7.433,26.027 -4.762,34.734c2.708,8.824 9.258,15.369 17.469,22.364c12.144,10.347 27.836,21.376 42.246,39.537c1.458,1.689 19.958,23.649 27.756,59.45Zm96.388,551.907c-5.414,-6.434 -11.846,-13.34 -19.609,-20.322c-22.863,-20.564 -57.277,-41.787 -111.258,-53.55c-55.774,-12.153 -138.708,-20.261 -213.928,-38.168c-43.211,-10.286 -83.883,-23.832 -115.622,-43.081c-0.742,-0.449 -1.478,-0.902 -2.209,-1.358c1.382,3.51 2.545,6.833 3.383,9.934c1.493,5.53 1.956,10.456 1.128,14.612c-5.439,27.31 -31.81,62.798 -68.938,95.138c-55.081,47.978 -133.602,89.157 -199.718,87.463c-66.121,1.696 -145.546,-40.715 -201.343,-89.689c-37.595,-32.998 -64.355,-69.031 -69.791,-96.328c-0.839,-4.21 -0.247,-9.28 1.319,-15.007c0.221,-0.807 0.461,-1.627 0.719,-2.459c-32.806,19.004 -74.501,32.268 -118.447,42.342c-73.402,16.827 -153.101,24.808 -207.222,36.601c-94.75,20.647 -129.266,70.614 -146.755,94.661c-28.81,39.615 -30.984,70.778 -31.538,95.471l0.734,-0.216c6.9,-2.025 18.657,-5.357 34.285,-9.347c49.818,-12.719 138.98,-32.128 235.588,-37.244c98.555,-5.219 204.791,4.516 285.243,50.94c204.501,118.006 368.541,177.878 499.651,201.05c134.512,23.772 234.364,8.914 307.69,-21.431c141.701,-58.641 183.326,-174.973 184.271,-177.659c8.672,-27.301 -2.387,-61.02 -31.751,-101.572c-4.153,-5.736 -9.255,-12.905 -15.882,-20.781Zm-1308.4,-543.729c-2.922,33.572 1.416,74.935 24.211,119.141c20.41,39.58 8.504,72.546 -8.551,95.613c-9.453,12.784 -20.504,22.471 -28.347,28.489c29.026,3.002 52.409,-2.497 70.272,-16.555c20.393,-16.049 33.473,-43.026 39.958,-80.292c0.313,-1.8 1.631,-3.259 3.388,-3.754c1.758,-0.495 3.644,0.063 4.85,1.434c23.816,27.095 27.784,66.748 6.638,121.464c32.404,-9.17 56.344,-25.784 66.85,-54c4.281,-11.497 7.553,-25.074 6.594,-40.512c-2.832,-45.572 -36.363,-93.648 -76.806,-141.461c-55.636,-65.773 -35.002,-142.844 29.096,-229.936c19.517,-26.517 33.017,-48.134 42.462,-68.28l0.005,-0.011c20.275,-43.248 21.802,-79.691 24.566,-143.047c-10.021,6.941 -20.531,14.129 -31.536,21.599c-52.214,35.443 -86.45,67.258 -105.14,96.579c-17.83,27.971 -21.219,53.475 -12.183,77.492c15.112,21.167 15.338,40.781 7.377,62.643c-7.54,20.704 -22.778,43.57 -39.206,72.19c-0.033,0.059 -0.068,0.116 -0.104,0.173c0,0 -20.124,31.975 -24.394,81.031Zm877.644,-553.396c-2.965,-0.716 -6.057,-1.32 -9.281,-1.799l-0.119,-0.018c-9.118,-1.345 -19.295,-1.696 -30.683,-0.794c-35.208,2.787 -100.588,28.351 -137.515,48.497c-9.273,5.059 -16.722,9.75 -21.342,13.655c-1.318,1.115 -2.381,2.14 -3.133,3.086c-0.276,0.347 -0.6,0.906 -0.661,1.014c-0.489,3.068 -0.69,9.774 0.462,16.246c0.324,1.818 0.754,3.617 1.314,5.311c1.192,3.603 2.808,6.863 5.916,7.856c2.066,0.659 4.604,0.19 7.803,-1.332c9.911,-4.715 44.451,-26.985 84.411,-44.563c23.427,-10.305 48.717,-18.998 72,-21.596c4.162,-0.465 14.636,-1.203 28.626,0.347l0.592,0.066c3.02,0.347 6.2,0.8 9.512,1.385c-3.376,-9.049 -6.491,-19.023 -7.902,-27.361Zm-137.779,-372.137c-20.442,-11.085 -133.362,-67.338 -282.184,-45.134c-82.463,12.304 -181.387,53.813 -253.497,117.91c-47.734,42.43 -83.725,94.771 -95.063,155.184c-13.924,74.197 -25.544,123.445 -42.779,160.311c-28.182,60.284 -56.66,82.066 -83.117,98.953c-25.245,16.113 -48.72,27.402 -68.072,66.099c-24.209,48.409 -8.623,103.502 10.644,174.509c4.582,16.884 11.385,33.598 15.4,50.557c6.321,26.696 5.987,53.965 -18.684,83.323c-48.076,57.21 -66.126,110.048 -50.644,150.979c8.937,23.629 29.088,42.993 60.612,56.833c-16.675,-26.992 -21.216,-52.255 -13.773,-75.619c8.342,-26.19 32.053,-50.3 72.078,-71.772c4.809,-48.618 24.309,-80.645 25.526,-82.605c16.087,-28.018 31.091,-50.36 38.475,-70.636c6.78,-18.618 6.8,-35.358 -5.814,-53.36c-20.228,-9.824 -33.506,-35.692 -33.721,-71.335c-0.313,-51.914 26.899,-125.092 98.982,-196.025c54.819,-53.943 80.629,-85.802 84.59,-179.578c0.008,-0.195 0.028,-0.389 0.06,-0.581c12.396,-74.306 66.818,-146.305 136.81,-194.224c70.106,-47.996 155.714,-71.746 229.946,-50.095c67.586,19.712 136.916,43.678 155.639,50.228l18.586,-73.922Zm-410.841,413.749c3.447,0.387 6.92,0.859 10.406,1.406c5.55,0.872 11.135,1.933 16.706,3.143c50.617,10.994 100.131,34.233 112.458,38.112c3.379,1.063 5.957,1.175 7.912,0.235c2.2,-1.058 3.396,-3.258 4.144,-5.862c0.252,-0.876 0.453,-1.798 0.624,-2.738c1.459,-8.012 -0.067,-17.792 -1.232,-21.596c-0.076,-0.098 -0.474,-0.606 -0.796,-0.912c-0.876,-0.832 -2.071,-1.7 -3.531,-2.621c-5.117,-3.227 -13.145,-6.838 -23.031,-10.561c-24.743,-9.319 -60.916,-19.198 -93.13,-24.723c-3.339,-0.572 -6.636,-1.098 -9.873,-1.572c-0.645,1.048 -1.306,2.111 -1.985,3.19c-5.118,8.134 -11.335,16.255 -18.672,24.499Zm527.8,779.253c22.996,49.805 69.067,65.011 103.81,59.354c-25.472,-27.684 -37.783,-56.849 -34.373,-83.927c2.401,-19.065 12.52,-37.253 31.658,-53.296c-1.179,-31.911 5.222,-73.656 23.458,-128.176c0.028,-0.082 0.057,-0.164 0.089,-0.244c9.408,-23.714 21.677,-76.651 16.916,-123.602c-2.978,-29.369 -12.545,-56.466 -34.438,-71.845c-0.272,1.738 -0.547,3.476 -0.824,5.216c-13.455,84.586 -32.199,170.871 -56.574,218.736c-0.054,0.362 -0.152,0.724 -0.296,1.079c-9.218,22.713 -29.863,52.769 -44.114,84.55c-11.188,24.951 -18.529,51.004 -12.05,75.207c0.298,0.405 0.537,0.864 0.698,1.367c1.344,4.194 2.833,8.192 4.452,11.998c0.335,0.653 0.682,1.305 1.042,1.955c0.288,0.52 0.467,1.072 0.546,1.628Zm-524.386,75.27c11.806,-32.545 32.039,-97.136 38.321,-131.422c-45.073,-30.441 -88.788,-68.246 -114.448,-116.541c-18.687,-35.173 -34.422,-97.432 -46.973,-163.513c-24.968,24.482 -23.918,57.526 -11.334,93.548c20.525,58.755 71.593,125.209 99.897,178.044c13.654,25.487 10.772,39.414 7.619,66.88c-0.029,0.256 -0.078,0.505 -0.146,0.745c0.506,13.821 -1.265,27.284 -1.053,39.066c0.147,8.223 1.213,15.565 5.432,21.355c4.111,5.64 11.171,9.612 22.685,11.838Zm487.664,-20.404c17.271,-14.995 24.952,-39.936 21.755,-66.164c-6.55,-20.906 -3.647,-43.151 3.833,-65.13c3.531,-10.378 8.094,-20.693 13.093,-30.759c-20.809,24.982 -43.062,45.769 -65.874,63.126c4.781,26.522 16.626,67.038 27.193,98.927Zm-175.16,-27.417c-46.872,11.236 -107.013,14.259 -163.616,-18.336c-28.178,-16.227 -65.189,-35.522 -101.999,-59.575c-7.185,35.905 -26.864,98.524 -38.316,129.921c-4.479,12.282 -10.22,24.008 -14.702,34.394l-0.004,0.01c-2.605,6.037 -4.861,11.537 -5.996,16.347c-0.776,3.287 -1.029,6.253 -0.512,8.848c5.16,25.905 31.065,59.733 66.745,91.049c54.081,47.469 130.876,89.026 194.949,87.332c0.083,-0.002 0.167,-0.002 0.251,0c64.066,1.694 139.989,-38.634 193.368,-85.13c35.202,-30.662 60.708,-63.943 65.865,-89.835c0.583,-2.93 0.069,-6.386 -0.984,-10.285c-1.853,-6.864 -5.442,-14.859 -9.378,-23.591l-0.005,-0.01c-3.639,-8.074 -7.577,-16.746 -10.847,-25.712c-2.017,-5.529 -4.157,-11.8 -6.488,-18.524l-0.092,-0.274c-10.355,-31.444 -23.066,-73.191 -28.741,-101.869c-28.146,20.275 -56.969,35.526 -84.834,47.17c-14.314,5.981 -33.083,12.896 -54.664,18.07Z" style="fill:#ff5c5c;"/><path id="avatar-highlight2" serif:id="avatar-highlight" d="M1281.55,1862.92c107.41,6.302 239.812,-14.512 336.824,-92.812c29.846,-24.089 53.816,-50.768 74.443,-95.397c33.893,-73.333 -0.782,-121.781 -77.666,-152.242c-58.871,-23.325 -146.159,-42.503 -221.935,-56.492c-62.297,-11.501 -105.444,-52.665 -127.755,-79.621c31.74,19.249 72.411,32.795 115.622,43.081c75.22,17.907 158.155,26.015 213.929,38.168c53.98,11.763 88.394,32.986 111.258,53.55c7.648,7.062 14.064,13.981 19.608,20.322c6.627,7.876 11.729,15.045 15.882,20.781c29.364,40.552 40.424,74.271 31.751,101.572c-0.944,2.686 -42.57,119.018 -184.271,177.659c-73.326,30.345 -173.177,45.203 -307.69,21.431Z" style="fill:#fff;fill-opacity:0.53;"/><path d="M1045.75,1286.39c-36.209,-0.932 -75.548,-6.738 -104.954,-21.187c-101.819,-50.027 -209.02,-141.438 -232.526,-204.112c-42.58,-113.53 -62.257,-414.183 -66.551,-488.365c-3.032,2.143 -6.115,4.31 -9.249,6.501c-3.046,68.914 -4.206,107.252 -25.201,152.668c11.254,97.83 36.687,284.242 74.909,356.18c25.288,47.597 68.55,84.675 113.087,114.49c0.572,0.238 1.081,0.583 1.508,1.006c38.328,25.502 77.461,45.659 106.775,62.539c6.345,3.654 16.477,8.895 28.697,13.797c-7.01,-2.507 -14.012,-5.494 -20.974,-9.016c-2.957,-1.496 -5.907,-3.088 -8.846,-4.781c-29.315,-16.88 -68.447,-37.037 -106.776,-62.539c-0.426,-0.423 -0.936,-0.768 -1.507,-1.006c-44.538,-29.815 -87.799,-66.893 -113.087,-114.49c-38.222,-71.938 -63.656,-258.35 -74.909,-356.18c20.994,-45.416 22.154,-83.754 25.201,-152.668c3.133,-2.191 6.216,-4.358 9.248,-6.501c1.135,-0.802 2.262,-1.6 3.382,-2.396c0.716,-0.195 2.962,-2.013 3.456,-2.459c8.201,-5.852 15.718,-11.251 23.442,-17.06c8.602,-6.47 23.49,-18.137 28.173,-21.76c0.021,-0.017 -0.078,0.021 -0.078,0.021c6.62,-5.362 15.62,-12.394 24.022,-20.194c6.193,-5.749 11.062,-10.766 15.415,-15.394c2.19,-0.089 3.45,0.442 5.173,0.669c2.683,0.354 7.26,0.879 10.921,1.454c5.392,0.846 10.817,1.878 16.23,3.054c50.294,10.924 99.476,34.063 111.725,37.917c5.988,1.884 10.562,1.462 14.025,-0.204c4.285,-2.061 7.085,-5.999 8.542,-11.071c0.326,-1.135 0.591,-2.329 0.813,-3.546c1.724,-9.471 -0.086,-21.032 -1.463,-25.529c-0.295,-0.964 -0.763,-1.866 -1.38,-2.662l-1.644,-1.851c-1.202,-1.143 -2.821,-2.364 -4.825,-3.629c-5.458,-3.441 -13.997,-7.34 -24.54,-11.311c-25.15,-9.472 -61.915,-19.521 -94.658,-25.137c-2.244,-0.385 -4.469,-0.749 -6.671,-1.091c15.478,-26.818 20.895,-45.788 40.335,-88.832c88.253,-195.411 297.5,-89.97 298.724,-89.351l0.006,0.003c1.208,0.611 2.641,0.689 3.938,0.158c0.194,-0.079 0.39,-0.157 0.587,-0.235c6.911,-2.709 15.618,-4.081 25.44,-4.027c-9.363,0.053 -17.67,1.422 -24.317,4.027c16.463,1.48 74.2,10.491 120.316,65.007c15.755,18.626 34.323,58.728 40.095,95.93c-6.965,-0.468 -14.453,-0.428 -22.513,0.21c-36.047,2.854 -103.042,28.864 -140.848,49.489c-9.889,5.396 -17.805,10.442 -22.732,14.608c-1.809,1.53 -3.243,2.964 -4.275,4.263l-1.371,2.061c-0.501,0.874 -0.839,1.833 -0.997,2.828c-0.572,3.591 -0.861,11.442 0.488,19.018c0.394,2.213 0.924,4.402 1.606,6.467c2.103,6.357 5.808,11.425 11.294,13.177c3.66,1.169 8.249,0.953 13.917,-1.745c9.886,-4.703 44.33,-26.927 84.187,-44.46c22.642,-9.96 47.064,-18.431 69.568,-20.942c3.434,-0.383 11.459,-0.948 22.282,-0.082c15.616,27.807 70.475,100.729 74.015,109.106c5.208,12.325 14.32,38.873 21.858,61.487c0.221,1.814 0.454,3.643 0.7,5.485c1.944,14.535 4.712,29.894 8.58,45.685c-4.479,44.037 -11.545,105.212 -21.426,167.328c-13.985,87.912 -33.51,177.754 -59.484,223.007c-54.966,95.764 -129.614,146.92 -198.318,175.627c-16.776,7.01 -39.915,15.431 -66.56,20.546Zm-33.316,-112.166c38.44,-0 88.562,-12.724 115.24,-42.435c14.857,-16.545 25.429,-39.627 27.152,-73.959c1.589,-31.664 -11.492,-71.331 -57.653,-105.733c-19.736,-14.708 -35.969,-14.06 -51.17,-11.157c-9.221,1.761 -18.012,4.471 -27.052,4.471c-9.655,-0 -18.937,-2.441 -28.643,-4.173c-15.754,-2.812 -32.515,-3.925 -53.17,7.725c-50.543,28.508 -64.688,79.995 -63.096,111.713c1.727,34.396 8.268,54.536 23.152,71.113c26.678,29.711 76.8,42.435 115.24,42.435Zm-82.696,-580.21c-1.674,-1.82 -4.5,-2.057 -6.458,-0.487c-2.043,1.638 -2.372,4.626 -0.734,6.669c-0,0 16.353,20.561 21.964,56.656c6.442,41.44 1.156,100.953 -18.198,133.187c-6.895,11.484 -14.951,21.096 -21.034,30.01c-4.442,6.509 -7.861,12.707 -9.382,18.906c-5.384,21.943 -0.658,35.311 6.441,43.527c10.927,12.644 28.3,13.283 28.3,13.283c2.617,0.091 4.816,-1.959 4.908,-4.577c0.091,-2.617 -1.959,-4.816 -4.576,-4.907c-0,-0 -1.468,-0.048 -3.73,-0.467c-4.519,-0.838 -12.209,-3.157 -17.722,-9.537c-5.701,-6.597 -8.729,-17.438 -4.405,-35.06c1.622,-6.609 5.965,-13.118 11.142,-20.264c5.657,-7.809 12.329,-16.261 18.194,-26.03c20.282,-33.78 26.19,-96.099 19.438,-139.529c-6.062,-38.999 -23.936,-61.133 -23.936,-61.133c-0.068,-0.085 -0.139,-0.168 -0.212,-0.247Zm219.916,525.288c-4.2,-0 -7.61,3.409 -7.61,7.609c0,4.2 3.41,7.61 7.61,7.61c4.2,0 7.61,-3.41 7.61,-7.61c0,-4.2 -3.41,-7.609 -7.61,-7.609Zm-206.637,-243.12c13.316,4.274 25.679,12.957 37.599,19.194c8.827,4.618 17.461,7.929 25.972,7.965c9.274,0.039 17.7,-3.707 26.326,-8.812c11.369,-6.728 23.177,-15.959 38.955,-19.366c2.559,-0.552 4.189,-3.079 3.636,-5.639c-0.552,-2.56 -3.079,-4.189 -5.639,-3.636c-14.192,3.064 -25.489,10.325 -35.95,16.891c-9.206,5.778 -17.612,11.113 -27.288,11.072c-9.027,-0.038 -18.095,-4.78 -27.591,-10.158c-10.543,-5.971 -21.506,-12.818 -33.119,-16.546c-2.493,-0.801 -5.168,0.573 -5.968,3.067c-0.8,2.493 0.574,5.167 3.067,5.968Zm-14.655,9.632c-7.618,-9.186 -13.128,-22.902 -7.192,-42.111c11.455,-37.067 59.587,-66.277 51.221,-165.552c-5.966,-70.788 -27.944,-83.388 -41.53,-84.137c0.073,0.079 0.144,0.162 0.212,0.247c0,-0 17.874,22.134 23.937,61.133c6.751,43.43 0.844,105.749 -19.439,139.529c-5.865,9.769 -12.536,18.221 -18.194,26.03c-5.177,7.146 -9.52,13.655 -11.142,20.264c-4.324,17.622 -1.296,28.463 4.405,35.06c5.513,6.38 13.204,8.699 17.722,9.537Zm179.94,-193.679c-0.032,0.335 -0.055,0.678 -0.067,1.029c-0.075,2.254 0.193,5.987 1.881,7.212c3.58,2.598 10.996,5.161 19.598,8.377c23.355,8.731 59.239,18.88 85.46,16.55c39.452,-3.506 61.322,-22.919 75.82,-58.771c6.231,2.63 12.303,4.362 18.943,4.52c0.25,0.006 14.56,1.375 27.841,-12.684c2.536,-2.685 3.457,-3.664 4.438,-5.211c0.728,-1.149 1.717,-3.575 1.447,-4.072c-0.059,-0.109 -0.154,-0.184 -0.285,-0.22c-0.008,-0.015 -0.018,-0.029 -0.029,-0.042c-8.97,-10.724 -69.189,-89.456 -151.606,-72.441c-13.687,2.826 -43.485,18.923 -62.332,38.555c-16.183,16.857 -27.972,38.875 -25.597,61.609c0.274,2.63 2.357,9.953 4.488,15.589Zm-21.844,203.567c18.357,-3.087 28.611,-12.739 32.733,-24.523c6.005,-17.168 -1.441,-39.665 -17.825,-54.371c-1.948,-1.749 -4.951,-1.587 -6.7,0.362c-1.749,1.948 -1.587,4.951 0.362,6.7c13.377,12.008 20.109,30.158 15.205,44.176c-3.15,9.007 -11.317,15.938 -25.349,18.298c-2.582,0.434 -4.326,2.883 -3.892,5.465c0.434,2.583 2.883,4.327 5.466,3.893Zm-188.255,-197.654c4.609,-8.679 5.62,-34.814 0.227,-49.02c-5.196,-13.686 -18.262,-30.903 -27.61,-39.091c-17.847,-15.632 -45.646,-29.729 -59.333,-32.555c-79.516,-16.416 -143.337,65.439 -147.923,71.48c-0.136,0.035 -0.234,0.111 -0.295,0.223c-0.27,0.497 0.719,2.923 1.447,4.072c0.981,1.547 1.902,2.526 4.438,5.211c13.281,14.059 27.591,12.69 27.841,12.684c6.64,-0.158 12.712,-1.89 18.943,-4.52c14.498,35.852 36.368,55.265 75.82,58.771c26.221,2.33 62.105,-7.819 85.46,-16.55c8.602,-3.216 16.018,-5.779 19.598,-8.377c0.655,-0.476 1.097,-1.33 1.387,-2.328Z" style="fill:none;"/></g></svg>