<?xml version="1.0" encoding="UTF-8" standalone="no"?>
<!DOCTYPE svg PUBLIC "-//W3C//DTD SVG 1.1//EN" "http://www.w3.org/Graphics/SVG/1.1/DTD/svg11.dtd">
<svg width="100%" height="100%" viewBox="0 0 2000 1897" version="1.1" xmlns="http://www.w3.org/2000/svg" xmlns:xlink="http://www.w3.org/1999/xlink" xml:space="preserve" xmlns:serif="http://www.serif.com/" style="fill-rule:evenodd;clip-rule:evenodd;stroke-linejoin:round;stroke-miterlimit:2;">
    <rect id="avatar-sad" x="0" y="0" width="2000" height="1896.57" style="fill:none;"/>
    <clipPath id="_clip1">
        <rect x="0" y="0" width="2000" height="1896.57"/>
    </clipPath>
    <g clip-path="url(#_clip1)">
        <path id="avatar-vertical-lines" d="M1998.08,538.417c2.105,1.558 2.55,4.532 0.992,6.636c-1.558,2.105 -4.532,2.55 -6.637,0.992l-102.169,-75.614c-2.104,-1.558 -2.549,-4.531 -0.991,-6.636c1.558,-2.105 4.532,-2.549 6.637,-0.992l102.168,75.614Zm-1692.69,57.42c2.105,1.558 2.549,4.531 0.991,6.636c-1.558,2.105 -4.531,2.549 -6.636,0.992l-179.755,-133.034c-2.105,-1.558 -2.549,-4.531 -0.991,-6.636c1.558,-2.105 4.532,-2.549 6.637,-0.992l179.754,133.034Zm1692.69,129.745c2.105,1.557 2.55,4.531 0.992,6.636c-1.558,2.105 -4.532,2.549 -6.637,0.991l-355.065,-262.778c-2.105,-1.558 -2.549,-4.531 -0.991,-6.636c1.558,-2.105 4.532,-2.549 6.636,-0.992l355.065,262.779Zm-1698.63,53.021c2.105,1.558 2.55,4.531 0.992,6.636c-1.558,2.105 -4.532,2.549 -6.637,0.992l-291.88,-216.017c-2.105,-1.558 -2.55,-4.531 -0.992,-6.636c1.558,-2.105 4.532,-2.549 6.637,-0.992l291.88,216.017Zm1698.63,134.143c2.105,1.558 2.55,4.532 0.992,6.637c-1.558,2.105 -4.532,2.549 -6.637,0.991l-277.46,-205.344c-2.105,-1.558 -2.549,-4.531 -0.991,-6.636c1.558,-2.105 4.532,-2.55 6.636,-0.992l277.46,205.344Zm-1718.02,38.675c2.105,1.558 2.549,4.532 0.991,6.637c-1.558,2.105 -4.531,2.549 -6.636,0.991l-272.496,-201.67c-2.105,-1.558 -2.55,-4.532 -0.992,-6.637c1.558,-2.105 4.532,-2.549 6.637,-0.991l272.496,201.67Zm1718.02,148.49c2.105,1.558 2.55,4.531 0.992,6.636c-1.558,2.105 -4.532,2.549 -6.637,0.991l-320.926,-237.512c-2.105,-1.558 -2.549,-4.532 -0.991,-6.637c1.558,-2.104 4.531,-2.549 6.636,-0.991l320.926,237.513Zm-1755.95,10.599c2.104,1.558 2.549,4.532 0.991,6.637c-1.558,2.105 -4.532,2.549 -6.637,0.991l-234.56,-173.595c-2.105,-1.558 -2.55,-4.531 -0.992,-6.636c1.558,-2.105 4.532,-2.549 6.637,-0.991l234.561,173.594Zm115.975,-569.244c2.104,1.558 2.549,4.531 0.991,6.636c-1.558,2.105 -4.532,2.549 -6.637,0.991l-106.018,-78.462c-2.105,-1.558 -2.549,-4.531 -0.991,-6.636c1.558,-2.105 4.532,-2.549 6.637,-0.992l106.018,78.463Zm1639.98,90.733c2.105,1.558 2.55,4.532 0.992,6.637c-1.558,2.105 -4.532,2.549 -6.637,0.991l-228.617,-169.196c-2.105,-1.558 -2.549,-4.531 -0.991,-6.636c1.558,-2.105 4.532,-2.549 6.637,-0.992l228.616,169.196Zm-1714.34,41.399c2.105,1.558 2.549,4.532 0.992,6.637c-1.558,2.105 -4.532,2.549 -6.637,0.991l-276.176,-204.394c-2.105,-1.558 -2.55,-4.532 -0.992,-6.637c1.558,-2.104 4.532,-2.549 6.637,-0.991l276.176,204.394Zm1714.34,145.766c2.105,1.558 2.55,4.531 0.992,6.636c-1.558,2.105 -4.532,2.549 -6.637,0.992l-289.983,-214.613c-2.105,-1.557 -2.549,-4.531 -0.991,-6.636c1.558,-2.105 4.531,-2.549 6.636,-0.991l289.983,214.612Zm-1675.72,69.978c2.105,1.558 2.549,4.531 0.992,6.636c-1.558,2.105 -4.532,2.549 -6.637,0.992l-314.792,-232.974c-2.105,-1.557 -2.55,-4.531 -0.992,-6.636c1.558,-2.105 4.532,-2.549 6.637,-0.991l314.792,232.973Zm1675.72,117.186c2.105,1.558 2.55,4.532 0.992,6.637c-1.558,2.105 -4.532,2.549 -6.637,0.991l-301.833,-223.382c-2.105,-1.558 -2.549,-4.531 -0.991,-6.636c1.558,-2.105 4.531,-2.55 6.636,-0.992l301.833,223.382Zm-1747.79,16.637c2.105,1.558 2.549,4.532 0.991,6.637c-1.558,2.105 -4.531,2.549 -6.636,0.991l-242.718,-179.632c-2.105,-1.558 -2.55,-4.531 -0.992,-6.636c1.558,-2.105 4.532,-2.55 6.637,-0.992l242.718,179.632Zm1635.67,87.545c2.104,1.558 2.549,4.532 0.991,6.637c-1.558,2.105 -4.532,2.549 -6.637,0.991l-100.308,-74.237c-2.105,-1.557 -2.549,-4.531 -0.991,-6.636c1.558,-2.105 4.531,-2.549 6.636,-0.991l100.309,74.236Zm-1770.27,0c2.105,1.558 2.55,4.532 0.992,6.637c-1.558,2.105 -4.532,2.549 -6.637,0.991l-108.112,-80.012c-2.105,-1.558 -2.55,-4.532 -0.992,-6.637c1.558,-2.105 4.532,-2.549 6.637,-0.991l108.112,80.012Z" style="fill:#ff5c5c;"/>
        <path id="avatar-base-colour" d="M1256.24,1368.79c32.431,23.998 78.099,39.769 127.044,51.421c75.157,17.891 158.024,25.984 213.751,38.128c98.418,21.446 134.197,73.199 152.415,98.358c31.735,43.828 42.494,80.62 33.076,110.111l-0.033,0.102c-0,-0 -41.918,122.227 -189.621,183.352c-146.249,60.524 -397.251,61.302 -815.712,-180.168c-78.958,-45.561 -183.275,-54.805 -279.998,-49.683c-145.834,7.723 -274.556,48.283 -274.556,48.283c-1.457,0.459 -3.046,0.188 -4.269,-0.727c-1.223,-0.916 -1.931,-2.365 -1.9,-3.892c0.533,-27.032 0.399,-61.9 33.479,-107.386c18.165,-24.977 53.996,-76.905 152.409,-98.35c54.094,-11.788 133.755,-19.761 207.122,-36.58c47.759,-10.948 92.845,-25.62 126.195,-47.734c3.316,-7.594 7.252,-15.88 10.814,-24.556c-13.637,-2.927 -21.868,-8.342 -26.886,-15.226c-5.312,-7.288 -7.066,-16.422 -7.252,-26.774c-0.051,-2.838 0.016,-5.774 0.137,-8.79c-6.804,9.299 -16.538,16.664 -27.85,22.262c-32.023,15.846 -76.692,17.206 -99.098,9.571c-1.462,-0.498 -2.59,-1.676 -3.023,-3.158c-0.434,-1.482 -0.12,-3.082 0.842,-4.29c32.179,-40.385 43.574,-84.088 25.832,-121.278c-1.037,3.773 -2.231,7.381 -3.511,10.818c-12.543,33.686 -42.13,52.861 -82.596,62.241c-1.737,0.403 -3.554,-0.203 -4.702,-1.568c-1.148,-1.365 -1.434,-3.259 -0.739,-4.902c20.869,-49.357 21.728,-86.092 4.72,-112.144c-7.579,34.668 -21.415,59.946 -41.391,75.667c-22.095,17.389 -51.826,23.307 -89.58,16.81c-1.958,-0.337 -3.499,-1.859 -3.861,-3.813c-0.361,-1.954 0.533,-3.926 2.242,-4.942c-0,0 20.209,-12.036 35.775,-33.088c15.274,-20.658 26.026,-50.174 7.747,-85.622c-21.849,-42.372 -27.42,-82.247 -25.818,-115.61c-34.074,19.182 -54.822,40.184 -62.209,63.373c-7.801,24.488 -0.361,51.098 21.127,79.955c1.247,1.674 1.253,3.966 0.016,5.646c-1.238,1.681 -3.428,2.356 -5.397,1.663c-42.977,-15.13 -69.455,-38.795 -80.502,-68.002c-16.405,-43.37 1.313,-99.821 52.254,-160.441c22.209,-26.428 22.405,-50.999 16.715,-75.032c-3.991,-16.86 -10.769,-33.472 -15.323,-50.258c-20.004,-73.72 -35.108,-130.98 -9.974,-181.239c16.398,-32.789 35.481,-47.108 56.162,-60.251c29.51,-18.754 62.403,-35.023 94.918,-104.574c16.988,-36.338 28.324,-84.911 42.049,-158.044c11.72,-62.448 48.742,-116.665 98.085,-160.525c73.506,-65.339 174.342,-107.661 258.401,-120.203c152.769,-22.793 268.493,35.468 288.627,46.461c0.601,-0.09 1.228,-0.065 1.853,0.092c0.586,0.148 1.12,0.399 1.585,0.729c75.192,-6.547 131.845,5.596 175.646,30.867c51.878,29.931 85.822,78.35 110.973,136.631c24.821,57.516 41.095,124.671 58.003,192.795c12.491,50.327 50.307,82.45 87.757,111.509c39.094,30.335 77.734,57.573 90.146,96.615c18.378,57.805 -5.202,107.218 -23.997,152.678c-17.666,42.729 -31.126,81.831 5.537,121.526c72.392,78.38 96.319,133.443 90.907,178.055c-5.437,44.821 -40.535,79.733 -88.015,117.669c-1.648,1.317 -3.968,1.387 -5.694,0.173c-1.725,-1.215 -2.44,-3.424 -1.755,-5.419c27.717,-80.791 12.923,-143.338 -33.25,-192.468c3.538,33.175 -3.165,75.49 -36.835,123.014c-18.165,25.638 -23.415,46.73 -21.558,63.798c4.264,39.204 45.581,56.339 45.581,56.339c1.821,0.763 2.98,2.573 2.909,4.546c-0.07,1.973 -1.355,3.696 -3.225,4.327c-36.447,12.291 -71.764,4.281 -97.628,-17.839c-27.781,3.263 -53.937,-16.142 -67.381,-44.474c0.461,20.107 3.614,35.94 11.141,49.898c7.189,13.333 18.363,24.9 34.77,36.952c1.53,1.123 2.243,3.049 1.813,4.897c-0.429,1.848 -1.918,3.263 -3.785,3.597c-0,0 -71.97,12.667 -105.687,-41.253c-6.654,-10.642 -11.837,-23.886 -14.637,-40.372c-0.529,-3.118 -0.973,-6.356 -1.326,-9.718c-13.653,13.037 -21.178,27.408 -23.08,42.509c-3.357,26.657 10.611,55.211 37.615,82.227c1.196,1.197 1.664,2.94 1.229,4.575c-0.435,1.635 -1.709,2.914 -3.341,3.358c-37.233,10.113 -91.414,-2.658 -119.681,-56.096c-2.344,21.963 -12.092,41.404 -28.161,53.798c1.868,5.463 3.665,10.559 5.339,15.149c3.037,8.328 6.673,16.393 10.079,23.944Z" style="fill:#fff;"/>
        <g id="eyes">
            <g id="eyes-right">
                <circle id="avatar-color-2" cx="1208" cy="671.275" r="32.5" style="fill:#ccf3f0;"/>
                <path id="avatar-color-1" d="M1208,632.525c21.387,-0 38.75,17.363 38.75,38.75c0,21.387 -17.363,38.75 -38.75,38.75c-21.387,-0 -38.75,-17.363 -38.75,-38.75c-0,-21.387 17.363,-38.75 38.75,-38.75Zm0,6.25c-17.937,-0 -32.5,14.563 -32.5,32.5c-0,17.937 14.563,32.5 32.5,32.5c17.937,-0 32.5,-14.563 32.5,-32.5c0,-17.937 -14.563,-32.5 -32.5,-32.5Zm0,19.713c7.057,0 12.787,5.73 12.787,12.787c-0,7.057 -5.73,12.787 -12.787,12.787c-7.057,-0 -12.787,-5.73 -12.787,-12.787c0,-7.057 5.73,-12.787 12.787,-12.787Z" style="fill:#ff5c5c;"/>
            </g>
            <g id="eyes-left">
                <circle id="avatar-color-21" serif:id="avatar-color-2" cx="808" cy="669.275" r="32.5" style="fill:#ccf3f0;"/>
                <path id="avatar-color-11" serif:id="avatar-color-1" d="M808,630.525c21.387,-0 38.75,17.363 38.75,38.75c0,21.387 -17.363,38.75 -38.75,38.75c-21.387,-0 -38.75,-17.363 -38.75,-38.75c-0,-21.387 17.363,-38.75 38.75,-38.75Zm0,6.25c-17.937,-0 -32.5,14.563 -32.5,32.5c-0,17.937 14.563,32.5 32.5,32.5c17.937,-0 32.5,-14.563 32.5,-32.5c0,-17.937 -14.563,-32.5 -32.5,-32.5Zm0,19.713c7.057,0 12.787,5.73 12.787,12.787c-0,7.057 -5.73,12.787 -12.787,12.787c-7.057,-0 -12.787,-5.73 -12.787,-12.787c0,-7.057 5.73,-12.787 12.787,-12.787Z" style="fill:#ff5c5c;"/>
            </g>
        </g>
        <path id="avatar-color-12" serif:id="avatar-color-1" d="M1256.24,1368.79c32.431,23.998 78.099,39.769 127.044,51.421c75.157,17.891 158.024,25.984 213.751,38.128c98.418,21.446 134.197,73.199 152.415,98.358c31.735,43.828 42.494,80.62 33.076,110.111l-0.033,0.102c-0,-0 -41.918,122.227 -189.621,183.352c-146.249,60.524 -397.251,61.302 -815.712,-180.168c-78.958,-45.561 -183.275,-54.805 -279.998,-49.683c-145.834,7.723 -274.556,48.283 -274.556,48.283c-1.457,0.459 -3.046,0.188 -4.269,-0.727c-1.223,-0.916 -1.931,-2.365 -1.9,-3.892c0.533,-27.032 0.399,-61.9 33.479,-107.386c18.165,-24.977 53.996,-76.905 152.409,-98.35c54.094,-11.788 133.755,-19.761 207.122,-36.58c47.759,-10.948 92.845,-25.62 126.195,-47.734c3.316,-7.594 7.252,-15.88 10.814,-24.556c-13.637,-2.927 -21.868,-8.342 -26.886,-15.226c-5.312,-7.288 -7.066,-16.422 -7.252,-26.774c-0.051,-2.838 0.016,-5.774 0.137,-8.79c-6.804,9.299 -16.538,16.664 -27.85,22.262c-32.023,15.846 -76.692,17.206 -99.098,9.571c-1.462,-0.498 -2.59,-1.676 -3.023,-3.158c-0.434,-1.482 -0.12,-3.082 0.842,-4.29c32.179,-40.385 43.574,-84.088 25.832,-121.278c-1.037,3.773 -2.231,7.381 -3.511,10.818c-12.543,33.686 -42.13,52.861 -82.596,62.241c-1.737,0.403 -3.554,-0.203 -4.702,-1.568c-1.148,-1.365 -1.434,-3.259 -0.739,-4.902c20.869,-49.357 21.728,-86.092 4.72,-112.144c-7.579,34.668 -21.415,59.946 -41.391,75.667c-22.095,17.389 -51.826,23.307 -89.58,16.81c-1.958,-0.337 -3.499,-1.859 -3.861,-3.813c-0.361,-1.954 0.533,-3.926 2.242,-4.942c-0,0 20.209,-12.036 35.775,-33.088c15.274,-20.658 26.026,-50.174 7.747,-85.622c-21.849,-42.372 -27.42,-82.247 -25.818,-115.61c-34.074,19.182 -54.822,40.184 -62.209,63.373c-7.801,24.488 -0.361,51.098 21.127,79.955c1.247,1.674 1.253,3.966 0.016,5.646c-1.238,1.681 -3.428,2.356 -5.397,1.663c-42.977,-15.13 -69.455,-38.795 -80.502,-68.002c-16.405,-43.37 1.313,-99.821 52.254,-160.441c22.209,-26.428 22.405,-50.999 16.715,-75.032c-3.991,-16.86 -10.769,-33.472 -15.323,-50.258c-20.004,-73.72 -35.108,-130.98 -9.974,-181.239c16.398,-32.789 35.481,-47.108 56.162,-60.251c29.51,-18.754 62.403,-35.023 94.918,-104.574c16.988,-36.338 28.324,-84.911 42.049,-158.044c11.72,-62.448 48.742,-116.665 98.085,-160.525c73.506,-65.339 174.342,-107.661 258.401,-120.203c152.769,-22.793 268.493,35.468 288.627,46.461c0.601,-0.09 1.228,-0.065 1.853,0.092c0.586,0.148 1.12,0.399 1.585,0.729c75.192,-6.547 131.845,5.596 175.646,30.867c51.878,29.931 85.822,78.35 110.973,136.631c24.821,57.516 41.095,124.671 58.003,192.795c12.491,50.327 50.307,82.45 87.757,111.509c39.094,30.335 77.734,57.573 90.146,96.615c18.378,57.805 -5.202,107.218 -23.997,152.678c-17.666,42.729 -31.126,81.831 5.537,121.526c72.392,78.38 96.319,133.443 90.907,178.055c-5.437,44.821 -40.535,79.733 -88.015,117.669c-1.648,1.317 -3.968,1.387 -5.694,0.173c-1.725,-1.215 -2.44,-3.424 -1.755,-5.419c27.717,-80.791 12.923,-143.338 -33.25,-192.468c3.538,33.175 -3.165,75.49 -36.835,123.014c-18.165,25.638 -23.415,46.73 -21.558,63.798c4.264,39.204 45.581,56.339 45.581,56.339c1.821,0.763 2.98,2.573 2.909,4.546c-0.07,1.973 -1.355,3.696 -3.225,4.327c-36.447,12.291 -71.764,4.281 -97.628,-17.839c-27.781,3.263 -53.937,-16.142 -67.381,-44.474c0.461,20.107 3.614,35.94 11.141,49.898c7.189,13.333 18.363,24.9 34.77,36.952c1.53,1.123 2.243,3.049 1.813,4.897c-0.429,1.848 -1.918,3.263 -3.785,3.597c-0,0 -71.97,12.667 -105.687,-41.253c-6.654,-10.642 -11.837,-23.886 -14.637,-40.372c-0.529,-3.118 -0.973,-6.356 -1.326,-9.718c-13.653,13.037 -21.178,27.408 -23.08,42.509c-3.357,26.657 10.611,55.211 37.615,82.227c1.196,1.197 1.664,2.94 1.229,4.575c-0.435,1.635 -1.709,2.914 -3.341,3.358c-37.233,10.113 -91.414,-2.658 -119.681,-56.096c-2.344,21.963 -12.092,41.404 -28.161,53.798c1.868,5.463 3.665,10.559 5.339,15.149c3.037,8.328 6.673,16.393 10.079,23.944Zm-630.462,-1027.28c-4.141,96.837 -30.719,129.868 -87.402,185.647c-69.666,68.554 -96.452,139.031 -96.149,189.203c0.152,25.226 7.067,45.189 19.066,56.418c-4.987,-23.022 -0.048,-47.379 16.7,-73.654c19.192,-30.108 54.198,-62.936 107.813,-99.33c13.805,-9.37 26.824,-18.282 39.068,-26.809c0.162,-0.13 0.333,-0.249 0.511,-0.356c5.825,-4.059 11.474,-8.031 16.948,-11.924c10.336,-6.487 18.237,-12.708 24.995,-18.154c26.337,-19.609 47.69,-37.31 64.216,-54.333c0.301,-0.44 0.675,-0.828 1.105,-1.145c9.951,-10.368 18.106,-20.494 24.501,-30.656c20.656,-32.824 24.607,-50.543 46.314,-98.605c83.863,-185.692 272.229,-111.672 306.321,-96.408l26.656,-106.021c-17.351,-6.078 -87.558,-30.404 -155.973,-50.358c-71.675,-20.905 -154.237,2.473 -221.927,48.815c-67.714,46.359 -120.662,115.788 -132.763,187.67Zm648.532,923.713c22.995,49.805 69.067,65.011 103.809,59.354c-25.472,-27.684 -37.783,-56.849 -34.373,-83.927c2.401,-19.065 12.521,-37.253 31.659,-53.296c-1.179,-31.911 5.221,-73.656 23.457,-128.176c0.028,-0.082 0.058,-0.164 0.09,-0.244c9.408,-23.714 21.676,-76.651 16.916,-123.602c-2.978,-29.369 -12.546,-56.466 -34.439,-71.845c-0.272,1.738 -0.546,3.476 -0.823,5.216c-13.456,84.586 -32.2,170.871 -56.574,218.736c-0.055,0.362 -0.153,0.724 -0.297,1.079c-9.218,22.713 -29.862,52.769 -44.113,84.55c-11.189,24.951 -18.529,51.004 -12.051,75.207c0.299,0.405 0.537,0.864 0.698,1.367c1.344,4.194 2.833,8.192 4.452,11.998c0.335,0.653 0.682,1.305 1.042,1.955c0.288,0.52 0.468,1.072 0.547,1.628Zm451.571,276.26c-5.414,-6.434 -11.845,-13.34 -19.608,-20.322c-22.864,-20.564 -57.278,-41.787 -111.258,-53.55c-55.774,-12.153 -138.709,-20.261 -213.929,-38.168c-43.211,-10.286 -83.882,-23.832 -115.622,-43.081c-0.741,-0.449 -1.477,-0.902 -2.209,-1.358c1.382,3.51 2.546,6.833 3.383,9.934c1.493,5.53 1.956,10.456 1.129,14.612c-5.439,27.31 -31.811,62.798 -68.939,95.138c-55.08,47.978 -133.602,89.157 -199.718,87.463c-66.12,1.696 -145.546,-40.715 -201.343,-89.689c-37.595,-32.998 -64.355,-69.031 -69.791,-96.328c-0.838,-4.21 -0.247,-9.28 1.319,-15.007c0.221,-0.807 0.461,-1.627 0.719,-2.459c-32.806,19.004 -74.501,32.268 -118.447,42.342c-73.402,16.827 -153.101,24.808 -207.222,36.601c-94.749,20.647 -129.266,70.614 -146.754,94.661c-28.811,39.615 -30.984,70.778 -31.538,95.471c-0,-0 19.39,-5.573 35.018,-9.563c49.819,-12.719 138.98,-32.128 235.589,-37.244c98.554,-5.219 204.79,4.516 285.243,50.94c204.501,118.006 368.54,177.878 499.65,201.05c134.513,23.772 234.364,8.914 307.69,-21.431c141.701,-58.641 183.327,-174.973 184.271,-177.659c8.673,-27.301 -2.387,-61.02 -31.751,-101.572c-4.153,-5.736 -9.255,-12.905 -15.882,-20.781Zm-173.019,-730.359c17.542,-23.544 40.489,-62.151 48.654,-100.514c6.807,-31.984 3.29,-63.874 -23.693,-85.991c-170.026,-139.365 -180.129,-223.074 -196.1,-297.707c-10.369,-48.455 -23.224,-93.017 -86.381,-147.143c-21.425,-18.362 -49.904,-25.591 -76.312,-27.804c-33.554,-2.812 -63.889,2.535 -73.049,4.39l-26.325,104.704c14.73,-3.519 34.336,-3.012 55.312,2.462c57.806,15.085 126.381,67.535 128.864,173.162c0.493,20.974 13.442,49.322 32.019,77.712c14.734,22.517 33.064,45.03 51.909,63.877c0.267,0.214 0.51,0.457 0.725,0.723c17.076,16.98 34.541,30.916 50.106,39.087c101.16,53.103 122.211,141.262 114.271,193.042Zm-315.275,508.965c17.272,-14.995 24.953,-39.936 21.755,-66.164c-6.549,-20.906 -3.646,-43.151 3.833,-65.13c3.532,-10.378 8.094,-20.693 13.094,-30.759c-20.81,24.982 -43.063,45.769 -65.875,63.126c4.782,26.522 16.626,67.038 27.193,98.927Zm147.399,-130.609c0.33,6.404 0.988,12.387 1.937,17.977c2.559,15.072 7.243,27.2 13.327,36.929c22.646,36.215 64.425,39.044 84.547,38.08c-12.677,-10.516 -21.747,-21.035 -28.057,-32.738c-11.581,-21.478 -13.886,-47.063 -11.424,-84.579c0.16,-2.436 2.142,-4.353 4.582,-4.431c2.441,-0.078 4.542,1.708 4.857,4.129c4.467,34.281 28.611,63.686 57.088,65.727c-31.435,-34.659 -43.742,-93.966 -14.991,-162.574c17.157,-40.942 25.903,-75.004 20.385,-111.746c-5.551,-36.964 -25.454,-76.526 -65.035,-128.398c-25.064,-32.847 -41.699,-68.521 -52.609,-103.154c-4.028,37.084 -9.532,82.26 -16.607,128.712c0.466,0.123 0.921,0.321 1.348,0.595c25.825,16.585 37.59,46.98 40.975,80.366c4.924,48.564 -7.747,103.307 -17.488,127.936c-18.158,54.32 -24.392,95.525 -22.855,126.76c0.01,0.136 0.016,0.273 0.02,0.409Zm-227.635,-1117.26c-20.443,-11.085 -133.362,-67.338 -282.185,-45.134c-82.462,12.304 -181.387,53.813 -253.497,117.91c-47.734,42.43 -83.725,94.771 -95.062,155.184c-13.925,74.197 -25.544,123.445 -42.779,160.311c-28.183,60.284 -56.66,82.066 -83.118,98.953c-25.245,16.113 -48.72,27.402 -68.072,66.099c-24.208,48.409 -8.623,103.502 10.645,174.509c4.581,16.884 11.385,33.598 15.4,50.557c6.32,26.696 5.986,53.965 -18.685,83.323c-48.076,57.21 -66.125,110.048 -50.644,150.979c8.938,23.629 29.088,42.993 60.612,56.833c-16.675,-26.992 -21.215,-52.255 -13.773,-75.619c8.343,-26.19 32.054,-50.3 72.079,-71.772c4.808,-48.618 24.308,-80.645 25.526,-82.605c16.086,-28.018 31.09,-50.36 38.474,-70.636c6.781,-18.618 6.8,-35.358 -5.813,-53.36c-20.228,-9.824 -33.506,-35.692 -33.722,-71.335c-0.313,-51.914 26.899,-125.092 98.983,-196.025c54.818,-53.943 80.628,-85.802 84.589,-179.578c0.009,-0.195 0.029,-0.389 0.061,-0.581c12.396,-74.306 66.818,-146.305 136.81,-194.224c70.105,-47.996 155.713,-71.746 229.945,-50.095c67.587,19.712 136.916,43.678 155.639,50.228l18.587,-73.922Zm472.142,917.355c52.735,49.947 73.382,113.672 49.613,196.4c39.012,-32.286 67.581,-62.753 72.276,-101.458c5.199,-42.859 -18.912,-95.176 -88.457,-170.474c-39.72,-43.005 -26.475,-85.299 -7.336,-131.591c18.009,-43.559 41.333,-90.789 23.724,-146.177c-11.888,-37.393 -49.477,-62.938 -86.92,-91.992c-39.086,-30.329 -78.113,-64.197 -91.15,-116.721c-16.777,-67.598 -32.876,-134.249 -57.506,-191.321c-24.299,-56.306 -56.883,-103.255 -107.002,-132.172c-42.42,-24.474 -97.331,-35.979 -170.159,-29.625l-18.044,71.767c12.908,-2.324 40.821,-6.257 71.291,-3.704c28.302,2.372 58.731,10.376 81.694,30.055c65.405,56.053 78.747,102.184 89.486,152.364c15.69,73.32 25.798,155.437 192.835,292.352c29.964,24.561 34.518,59.791 26.959,95.306c-10.849,50.981 -46.808,102.39 -64.012,120.906c-6.267,15.264 -7.434,26.027 -4.762,34.734c2.708,8.824 9.257,15.369 17.468,22.364c12.144,10.347 27.836,21.376 42.246,39.537c1.458,1.689 19.958,23.649 27.756,59.45Zm-1212.01,8.178c-2.922,33.572 1.416,74.935 24.211,119.141c20.409,39.58 8.503,72.546 -8.552,95.613c-9.452,12.784 -20.504,22.471 -28.346,28.489c29.025,3.002 52.408,-2.497 70.272,-16.555c20.392,-16.049 33.472,-43.026 39.957,-80.292c0.313,-1.8 1.631,-3.259 3.389,-3.754c1.758,-0.495 3.644,0.063 4.849,1.434c23.816,27.095 27.785,66.748 6.638,121.464c32.405,-9.17 56.344,-25.784 66.85,-54c4.281,-11.497 7.553,-25.074 6.594,-40.512c-2.831,-45.572 -36.362,-93.648 -76.806,-141.461c-55.635,-65.773 -35.001,-142.844 29.097,-229.936c19.516,-26.517 33.016,-48.134 42.462,-68.28l0.005,-0.011c20.275,-43.248 21.801,-79.691 24.566,-143.047c-10.022,6.941 -20.532,14.129 -31.537,21.599c-52.214,35.443 -86.449,67.258 -105.14,96.579c-17.829,27.971 -21.219,53.475 -12.183,77.492c15.112,21.167 15.339,40.781 7.377,62.643c-7.54,20.704 -22.777,43.57 -39.205,72.19c-0.034,0.059 -0.069,0.116 -0.104,0.173c-0,0 -20.124,31.975 -24.394,81.031Zm644.941,294.918c-46.871,11.236 -107.012,14.259 -163.615,-18.336c-28.179,-16.227 -65.189,-35.522 -101.999,-59.575c-7.186,35.905 -26.865,98.524 -38.316,129.921c-4.479,12.282 -10.22,24.008 -14.703,34.394l-0.004,0.01c-2.605,6.037 -4.861,11.537 -5.996,16.347c-0.776,3.287 -1.028,6.253 -0.511,8.848c5.159,25.905 31.065,59.733 66.744,91.049c54.082,47.469 130.876,89.026 194.949,87.332c0.084,-0.002 0.167,-0.002 0.251,0c64.066,1.694 139.989,-38.634 193.368,-85.13c35.202,-30.662 60.708,-63.943 65.865,-89.835c0.584,-2.93 0.069,-6.386 -0.983,-10.285c-1.854,-6.864 -5.443,-14.859 -9.379,-23.591l-0.005,-0.01c-3.639,-8.074 -7.577,-16.746 -10.847,-25.712c-2.017,-5.529 -4.156,-11.8 -6.487,-18.524l-0.093,-0.274c-10.355,-31.444 -23.065,-73.191 -28.741,-101.869c-28.145,20.275 -56.968,35.526 -84.834,47.17c-14.314,5.981 -33.082,12.896 -54.664,18.07Zm-450.327,-105.163c25.589,40.617 17.167,89.987 -16.998,135.822c22.084,4.869 58.468,2.381 85.294,-10.894c18.892,-9.348 33.069,-24.169 32.876,-46.201c-0.008,-0.854 0.211,-1.659 0.601,-2.355c2.784,-23.52 5.231,-36.237 -6.852,-58.791c-28.507,-53.215 -79.818,-120.218 -100.49,-179.395c-14.437,-41.327 -14.046,-78.944 16.729,-106.33c0.477,-0.425 1.017,-0.736 1.586,-0.935c-11.183,-60.828 -19.684,-123.823 -25.325,-171.113c-9.007,16.642 -20.765,34.668 -36.24,55.693c-60.889,82.732 -82.344,155.702 -29.494,218.183c41.934,49.574 76.097,99.749 79.032,147c0.421,6.769 0.108,13.213 -0.719,19.316Zm87.992,-658.435c-8.582,7.293 -27.585,21.447 -28.095,21.739c-7.428,5.53 -15.24,11.208 -23.442,17.06c-0.493,0.446 -2.739,2.264 -3.455,2.459c-1.121,0.796 -2.248,1.594 -3.382,2.396c-3.032,2.143 -6.115,4.31 -9.249,6.501c-3.046,68.914 -4.206,107.252 -25.201,152.668c11.254,97.83 36.687,284.242 74.909,356.18c25.288,47.597 68.55,84.675 113.087,114.49c0.572,0.238 1.081,0.583 1.508,1.006c38.328,25.502 77.461,45.659 106.775,62.539c2.94,1.693 5.889,3.285 8.847,4.781c46.223,23.382 94.249,23.202 134.351,15.523c26.699,-5.112 49.885,-13.549 66.687,-20.57c68.704,-28.707 143.352,-79.863 198.319,-175.627c25.974,-45.253 45.499,-135.095 59.483,-223.007c9.881,-62.116 16.947,-123.291 21.427,-167.328c-3.869,-15.791 -6.637,-31.15 -8.581,-45.685c-3.563,-26.642 -4.357,-50.514 -4.087,-69.188c-0.199,-0.176 -0.385,-0.37 -0.557,-0.584c-7.96,-9.885 -23.218,-26.503 -23.218,-26.503c0,0 -8.904,-11.19 -12.885,-16.459c-5.448,-7.208 -10.622,-14.538 -15.422,-21.874c-3.293,-5.032 -10.855,-17.626 -16.648,-28.494c-7.204,-13.517 -16.56,-38.994 -16.918,-54.191c-2.352,-100.039 -67.026,-149.917 -121.773,-164.203c-22.607,-5.899 -43.457,-5.8 -57.205,-0.411c-0.197,0.078 -0.392,0.156 -0.586,0.235c-1.298,0.531 -2.731,0.453 -3.939,-0.158l-0.005,-0.003c-1.224,-0.619 -210.472,-106.06 -298.725,89.351c-21.965,48.637 -26.028,66.538 -46.93,99.754c-5.137,8.163 -11.381,16.314 -18.752,24.589c-3.653,4.101 -5.836,6.378 -8.883,9.484c-10.589,10.791 -26.785,24.462 -37.455,33.53Zm230.768,64.942c0.073,0.079 0.144,0.162 0.212,0.247c0,-0 17.874,22.134 23.937,61.133c6.751,43.43 0.844,105.749 -19.439,139.529c-5.865,9.769 -12.536,18.221 -18.194,26.03c-5.177,7.146 -9.52,13.655 -11.142,20.264c-4.324,17.622 -1.296,28.463 4.405,35.06c5.513,6.38 13.204,8.699 17.722,9.537c2.263,0.419 3.73,0.467 3.73,0.467c2.617,0.091 4.667,2.29 4.576,4.907c-0.091,2.618 -2.291,4.668 -4.908,4.577c0,-0 -17.373,-0.639 -28.3,-13.283c-7.099,-8.216 -11.825,-21.584 -6.441,-43.527c1.521,-6.199 4.94,-12.397 9.382,-18.906c6.084,-8.914 14.139,-18.526 21.035,-30.01c19.353,-32.234 24.639,-91.747 18.197,-133.187c-5.611,-36.095 -21.964,-56.656 -21.964,-56.656c-1.638,-2.043 -1.309,-5.031 0.734,-6.669c1.958,-1.57 4.785,-1.333 6.458,0.487Zm361.257,74.845c-14.498,27.162 -36.368,41.87 -75.821,44.526c-26.221,1.766 -62.105,-5.923 -85.46,-12.539c-8.601,-2.436 -16.018,-4.378 -19.597,-6.346c-1.688,-0.928 -1.957,-3.757 -1.882,-5.464c0.089,-2.02 0.846,-3.714 1.149,-4.494c12.242,-31.491 66.132,-57.165 103.05,-58.698c5.371,-0.223 16.275,0.159 27.955,3.199c19.499,5.077 33.949,14.2 43.751,19.775c2.912,1.657 6.991,3.92 7.6,4.258c13.664,7.582 20.558,8.38 23.577,8.789c3.855,0.522 11.124,1.051 22.183,-3.904c1.689,-0.757 3.093,-1.495 3.098,-1.497c1.779,-1.037 2.795,-1.201 3.065,-0.824c0.27,0.378 -0.718,2.215 -1.447,3.086c-0.981,1.172 -1.902,1.914 -4.438,3.947c-13.281,10.652 -27.591,9.615 -27.84,9.61c-6.641,-0.12 -12.713,-1.431 -18.943,-3.424Zm-176.608,22.546c16.635,4.809 67.004,17.133 99.632,13.863c37.697,-3.778 55.107,-18.614 65.957,-40.086l0.174,-0.345c-3.451,-1.483 -9.913,-4.315 -15.759,-7.047c-8.329,-3.892 -15.125,-6.58 -22.754,-9.712c-8.759,-3.595 -21.498,-5.722 -29.798,-5.859c-15.755,-0.261 -29.931,2.449 -43.733,7.815c-14.993,5.828 -39.441,19.731 -46.222,27.154c-3.029,3.315 -5.72,6.994 -7.673,11.225c-0.193,0.416 -0.783,2.714 0.176,2.992Zm-398.449,-22.546c-6.23,1.993 -12.303,3.304 -18.943,3.424c-0.249,0.005 -14.56,1.042 -27.841,-9.61c-2.535,-2.033 -3.457,-2.775 -4.438,-3.947c-0.728,-0.871 -1.716,-2.708 -1.447,-3.086c0.27,-0.377 1.287,-0.213 3.066,0.824c0.004,0.002 1.409,0.74 3.097,1.497c11.059,4.955 18.329,4.426 22.183,3.904c3.02,-0.409 9.914,-1.207 23.577,-8.789c0.61,-0.338 4.688,-2.601 7.601,-4.258c9.802,-5.575 24.252,-14.698 43.751,-19.775c11.68,-3.04 22.584,-3.422 27.955,-3.199c36.918,1.533 90.807,27.207 103.05,58.698c0.303,0.78 1.059,2.474 1.148,4.494c0.076,1.707 -0.193,4.536 -1.881,5.464c-3.58,1.968 -10.996,3.91 -19.597,6.346c-23.355,6.616 -59.239,14.305 -85.46,12.539c-39.453,-2.656 -61.323,-17.364 -75.821,-44.526Zm176.607,22.546c0.96,-0.278 0.369,-2.576 0.177,-2.992c-1.953,-4.231 -4.645,-7.91 -7.673,-11.225c-6.781,-7.423 -31.23,-21.326 -46.222,-27.154c-13.803,-5.366 -27.979,-8.076 -43.733,-7.815c-8.3,0.137 -21.039,2.264 -29.798,5.859c-7.629,3.132 -14.426,5.82 -22.754,9.712c-5.847,2.732 -12.308,5.564 -15.759,7.047l0.173,0.345c10.85,21.472 28.261,36.308 65.958,40.086c32.628,3.27 82.997,-9.054 99.631,-13.863Zm193.913,204.297c-2.582,0.434 -5.032,-1.31 -5.466,-3.893c-0.434,-2.582 1.31,-5.031 3.893,-5.465c14.031,-2.36 22.198,-9.291 25.349,-18.298c4.903,-14.018 -1.829,-32.168 -15.206,-44.176c-1.949,-1.749 -2.111,-4.752 -0.361,-6.7c1.749,-1.949 4.751,-2.111 6.7,-0.362c16.383,14.706 23.829,37.203 17.824,54.371c-4.122,11.784 -14.376,21.436 -32.733,24.523Zm-143.44,-19.52c-2.494,-0.801 -3.868,-3.475 -3.068,-5.968c0.801,-2.494 3.475,-3.868 5.968,-3.067c11.613,3.728 22.576,10.575 33.12,16.546c9.496,5.378 18.563,10.12 27.591,10.158c9.676,0.041 18.082,-5.294 27.288,-11.072c10.46,-6.566 21.758,-13.827 35.949,-16.891c2.56,-0.553 5.087,1.076 5.64,3.636c0.552,2.56 -1.077,5.087 -3.637,5.639c-15.777,3.407 -27.586,12.638 -38.955,19.366c-8.626,5.105 -17.051,8.851 -26.326,8.812c-8.511,-0.036 -17.145,-3.347 -25.972,-7.965c-11.92,-6.237 -24.283,-14.92 -37.598,-19.194Zm581.845,355.08c20.952,18.711 49.126,26.89 78.835,20.456c-11.127,-6.902 -27.968,-20.125 -36.13,-40.517c-8.48,-21.19 -7.949,-50.276 18.821,-88.06c36.748,-51.869 39.858,-97.109 33.004,-130.166c-7.341,-35.41 -25.989,-56.682 -25.989,-56.682c-0.054,-0.062 -0.107,-0.126 -0.159,-0.191l-0.004,-0.005c-13.968,-17.629 -29.251,-28.255 -41.026,-38.286c-9.744,-8.301 -17.173,-16.333 -20.386,-26.804c-3.203,-10.437 -2.323,-23.46 5.393,-41.938l0.01,-0.024c17.356,-42.235 6.786,-144.316 -104.174,-202.563c-13.932,-7.314 -29.368,-19.071 -44.744,-33.466c0.077,27.83 2.705,65.211 12.635,105.39c10.059,40.703 27.615,84.296 57.675,123.692c40.876,53.569 61.143,94.571 66.875,132.745c5.767,38.394 -3.088,74.04 -21.017,116.822c-29.048,69.318 -14.303,128.622 20.381,159.597Zm-776.062,109.229c11.806,-32.545 32.039,-97.136 38.321,-131.422c-45.073,-30.441 -88.788,-68.246 -114.447,-116.541c-18.688,-35.173 -34.423,-97.432 -46.973,-163.513c-24.968,24.482 -23.918,57.526 -11.335,93.548c20.525,58.755 71.593,125.209 99.897,178.044c13.654,25.487 10.772,39.414 7.62,66.88c-0.03,0.256 -0.079,0.505 -0.146,0.745c0.506,13.821 -1.265,27.284 -1.054,39.066c0.148,8.223 1.213,15.565 5.433,21.355c4.11,5.64 11.171,9.612 22.684,11.838Z" style="fill:#ff5c5c;"/>
        <path id="mask" d="M700.091,529.07c10.67,-9.068 26.866,-22.739 37.455,-33.53c3.047,-3.106 5.23,-5.383 8.883,-9.484c7.371,-8.275 13.615,-16.426 18.752,-24.589c20.902,-33.216 24.965,-51.117 46.93,-99.754c88.253,-195.411 297.501,-89.97 298.725,-89.351l0.005,0.003c1.208,0.611 2.641,0.689 3.939,0.158c0.194,-0.079 0.389,-0.157 0.586,-0.235c13.748,-5.389 34.598,-5.488 57.205,0.411c54.747,14.286 119.421,64.164 121.773,164.203c0.358,15.197 9.714,40.674 16.918,54.191c5.793,10.868 13.355,23.462 16.648,28.494c4.8,7.336 9.974,14.666 15.422,21.874c3.981,5.269 12.885,16.459 12.885,16.459c0,0 15.258,16.618 23.218,26.503c0.172,0.214 0.358,0.408 0.557,0.584c-0.27,18.674 0.524,42.546 4.087,69.188c1.944,14.535 4.712,29.894 8.581,45.685c-4.48,44.037 -11.546,105.212 -21.427,167.328c-13.984,87.912 -33.509,177.754 -59.483,223.007c-54.967,95.764 -129.615,146.92 -198.319,175.627c-16.802,7.021 -39.988,15.458 -66.687,20.57c-40.102,7.679 -88.128,7.859 -134.351,-15.523c-2.958,-1.496 -5.907,-3.088 -8.847,-4.781c-29.314,-16.88 -68.447,-37.037 -106.775,-62.539c-0.427,-0.423 -0.936,-0.768 -1.508,-1.006c-44.537,-29.815 -87.799,-66.893 -113.087,-114.49c-38.222,-71.938 -63.655,-258.35 -74.909,-356.18c20.995,-45.416 22.155,-83.754 25.201,-152.668c3.134,-2.191 6.217,-4.358 9.249,-6.501c1.134,-0.802 2.261,-1.6 3.382,-2.396c0.716,-0.195 2.962,-2.013 3.455,-2.459c8.202,-5.852 16.014,-11.53 23.442,-17.06c0.51,-0.292 19.513,-14.446 28.095,-21.739Zm387.488,366.63c18.357,-3.087 28.611,-12.739 32.733,-24.523c6.005,-17.168 -1.441,-39.665 -17.824,-54.371c-1.949,-1.749 -4.951,-1.587 -6.7,0.362c-1.75,1.948 -1.588,4.951 0.361,6.7c13.377,12.008 20.109,30.158 15.206,44.176c-3.151,9.007 -11.318,15.938 -25.349,18.298c-2.583,0.434 -4.327,2.883 -3.893,5.465c0.434,2.583 2.884,4.327 5.466,3.893Zm-143.44,-19.52c13.315,4.274 25.678,12.957 37.598,19.194c8.827,4.618 17.461,7.929 25.972,7.965c9.275,0.039 17.7,-3.707 26.326,-8.812c11.369,-6.728 23.178,-15.959 38.955,-19.366c2.56,-0.552 4.189,-3.079 3.637,-5.639c-0.553,-2.56 -3.08,-4.189 -5.64,-3.636c-14.191,3.064 -25.489,10.325 -35.949,16.891c-9.206,5.778 -17.612,11.113 -27.288,11.072c-9.028,-0.038 -18.095,-4.78 -27.591,-10.158c-10.544,-5.971 -21.507,-12.818 -33.12,-16.546c-2.493,-0.801 -5.167,0.573 -5.968,3.067c-0.8,2.493 0.574,5.167 3.068,5.968Zm-227.08,-207.323c14.498,27.162 36.368,41.87 75.821,44.526c26.221,1.766 62.105,-5.923 85.46,-12.539c8.601,-2.436 16.017,-4.378 19.597,-6.346c1.688,-0.928 1.957,-3.757 1.881,-5.464c-0.089,-2.02 -0.845,-3.714 -1.148,-4.494c-12.243,-31.491 -66.132,-57.165 -103.05,-58.698c-5.371,-0.223 -16.275,0.159 -27.955,3.199c-19.499,5.077 -33.949,14.2 -43.751,19.775c-2.913,1.657 -6.991,3.92 -7.601,4.258c-13.663,7.582 -20.557,8.38 -23.577,8.789c-3.854,0.522 -11.124,1.051 -22.183,-3.904c-1.688,-0.757 -3.093,-1.495 -3.097,-1.497c-1.779,-1.037 -2.796,-1.201 -3.066,-0.824c-0.269,0.378 0.719,2.215 1.447,3.086c0.981,1.172 1.903,1.914 4.438,3.947c13.281,10.652 27.592,9.615 27.841,9.61c6.64,-0.12 12.713,-1.431 18.943,-3.424Zm213.8,-74.845c-1.673,-1.82 -4.5,-2.057 -6.458,-0.487c-2.043,1.638 -2.372,4.626 -0.734,6.669c0,0 16.353,20.561 21.964,56.656c6.442,41.44 1.156,100.953 -18.197,133.187c-6.896,11.484 -14.951,21.096 -21.035,30.01c-4.442,6.509 -7.861,12.707 -9.382,18.906c-5.384,21.943 -0.658,35.311 6.441,43.527c10.927,12.644 28.3,13.283 28.3,13.283c2.617,0.091 4.817,-1.959 4.908,-4.577c0.091,-2.617 -1.959,-4.816 -4.576,-4.907c-0,-0 -1.467,-0.048 -3.73,-0.467c-4.518,-0.838 -12.209,-3.157 -17.722,-9.537c-5.701,-6.597 -8.729,-17.438 -4.405,-35.06c1.622,-6.609 5.965,-13.118 11.142,-20.264c5.658,-7.809 12.329,-16.261 18.194,-26.03c20.283,-33.78 26.19,-96.099 19.439,-139.529c-6.063,-38.999 -23.937,-61.133 -23.937,-61.133c-0.068,-0.085 -0.139,-0.168 -0.212,-0.247Zm361.257,74.845c6.23,1.993 12.302,3.304 18.943,3.424c0.249,0.005 14.559,1.042 27.84,-9.61c2.536,-2.033 3.457,-2.775 4.438,-3.947c0.729,-0.871 1.717,-2.708 1.447,-3.086c-0.27,-0.377 -1.286,-0.213 -3.065,0.824c-0.005,0.002 -1.409,0.74 -3.098,1.497c-11.059,4.955 -18.328,4.426 -22.183,3.904c-3.019,-0.409 -9.913,-1.207 -23.577,-8.789c-0.609,-0.338 -4.688,-2.601 -7.6,-4.258c-9.802,-5.575 -24.252,-14.698 -43.751,-19.775c-11.68,-3.04 -22.584,-3.422 -27.955,-3.199c-36.918,1.533 -90.808,27.207 -103.05,58.698c-0.303,0.78 -1.06,2.474 -1.149,4.494c-0.075,1.707 0.194,4.536 1.882,5.464c3.579,1.968 10.996,3.91 19.597,6.346c23.355,6.616 59.239,14.305 85.46,12.539c39.453,-2.656 61.323,-17.364 75.821,-44.526Z" style="fill:#fff;"/>
    </g>
</svg>
